<?xml version="1.0" encoding="UTF-8"?>
<svg id="Layer_1" xmlns="http://www.w3.org/2000/svg" version="1.1" viewBox="0 0 79.2 61.2">
  <!-- Generator: Adobe Illustrator 29.1.0, SVG Export Plug-In . SVG Version: 2.1.0 Build 142)  -->
  <defs>
    <style>
      .st0 {
        fill: #fff;
      }
    </style>
  </defs>
  <rect class="st0" x="36.95" y="38.65" width="2.53" height="13.35" rx=".05" ry=".05"/>
  <path class="st0" d="M26.35,42.04h-3.01s-.06.01-.08.04l-2.97,3.86c-.09.11-.27.05-.27-.09v-7.03c0-.09-.08-.17-.17-.17h-2.18c-.09,0-.17.08-.17.17v13.01c0,.09.08.17.17.17h2.18c.09,0,.17-.08.17-.17v-3.64c0-.14.18-.21.27-.09l2.96,3.85s.06.05.1.05h2.94c.11,0,.16-.12.09-.2l-4.06-4.78,4.1-4.82c.05-.06,0-.16-.07-.16Z"/>
  <path class="st0" d="M35.84,42.03h-2.28c-.07,0-.13.06-.13.13v.92c0,.14-.17.21-.27.11-.81-.82-1.89-1.31-3.07-1.31-2.54,0-4.6,2.3-4.6,5.14s2.06,5.14,4.6,5.14c1.18,0,2.26-.5,3.07-1.31.1-.1.27-.03.27.11v.92c0,.07.06.13.13.13h2.28c.07,0,.13-.06.13-.13v-9.72c0-.07-.06-.13-.13-.13ZM30.75,50.01c-1.49,0-2.69-1.34-2.69-2.99s1.21-2.99,2.69-2.99,2.69,1.34,2.69,2.99h0c0,1.65-1.21,2.99-2.69,2.99Z"/>
  <path class="st0" d="M61.22,38.65h-2.28c-.07,0-.13.06-.13.13v4.3c0,.14-.17.21-.27.11-.81-.82-1.89-1.31-3.07-1.31-2.54,0-4.6,2.3-4.6,5.14s2.06,5.14,4.6,5.14c1.18,0,2.26-.5,3.07-1.31.1-.1.27-.03.27.11v.92c0,.07.06.13.13.13h2.28c.07,0,.13-.06.13-.13v-13.1c0-.07-.06-.13-.13-.13ZM56.12,50.01c-1.49,0-2.69-1.34-2.69-2.99s1.21-2.99,2.69-2.99,2.69,1.34,2.69,2.99h0c0,1.65-1.21,2.99-2.69,2.99Z"/>
  <path class="st0" d="M49.84,42.01h-2.28c-.07,0-.13.06-.13.13v5.89c0,.56-.24,1.11-.68,1.46-.41.33-.93.52-1.49.51-1.23-.03-2.24-1.12-2.24-2.35v-3.27s0-2.26,0-2.26c0-.05-.04-.1-.1-.1h-2.33c-.05,0-.1.04-.1.1v6.01c0,2.23,1.81,4.04,4.04,4.04,1.08,0,2.06-.42,2.79-1.12.04-.04.12-.01.12.05v.79c0,.07.06.13.13.13h2.28c.07,0,.13-.06.13-.13v-9.74c0-.07-.06-.13-.13-.13Z"/>
  <path class="st0" d="M30.66,29.41h5.01c.14,0,.22.17.11.27l-7.8,7.85c-.07.07-.16.11-.26.11h-5.01c-.14,0-.22-.17-.11-.27l7.8-7.85c.07-.07.16-.11.26-.11Z"/>
  <path class="st0" d="M39.1,29.41h5.01c.14,0,.22.17.11.27l-7.8,7.85c-.07.07-.16.11-.26.11h-5.01c-.14,0-.22-.17-.11-.27l7.8-7.85c.07-.07.16-.11.26-.11Z"/>
  <path class="st0" d="M47.64,29.41h5.01c.14,0,.22.17.11.27l-7.8,7.85c-.07.07-.16.11-.26.11h-5.01c-.14,0-.22-.17-.11-.27l7.8-7.85c.07-.07.16-.11.26-.11Z"/>
  <path class="st0" d="M27.01,29.69l-7.8,7.85c-.07.07-.16.11-.26.11h-1.02c-.17,0-.31-.14-.31-.31v-2.34c0-.07.03-.14.08-.19l5.25-5.29c.07-.07.16-.11.26-.11h3.68c.14,0,.22.17.11.27Z"/>
  <path class="st0" d="M56.53,29.41h5.01c.14,0,.22.17.11.27l-7.8,7.85c-.07.07-.16.11-.26.11h-5.01c-.14,0-.22-.17-.11-.27l7.8-7.85c.07-.07.16-.11.26-.11Z"/>
  <path class="st0" d="M61.34,33.37v4.09c0,.11-.09.19-.19.19h-4.14c-.14,0-.22-.17-.11-.28l4.12-4.14c.12-.12.33-.04.33.14Z"/>
  <path class="st0" d="M17.62,31.35v-1.85s.04-.09.09-.09h1.87c.06,0,.1.08.05.12l-1.86,1.87c-.06.06-.15.02-.15-.06Z"/>
  <path class="st0" d="M24.47,19.65l16.29,12.68,16.19-12.77c.1-.08.16-.2.16-.33v-9.76c0-.36-.42-.55-.69-.31l-15.48,13.8c-.11.09-.27.09-.37,0l-15.57-13.8c-.27-.24-.69-.05-.69.31v9.85c0,.13.06.25.16.33Z"/>
</svg>