<?xml version="1.0" encoding="UTF-8"?>
<svg id="Capa_1" xmlns="http://www.w3.org/2000/svg" version="1.1" viewBox="0 0 623.62 623.62">
  <!-- Generator: Adobe Illustrator 29.1.0, SVG Export Plug-In . SVG Version: 2.1.0 Build 142)  -->
  <defs>
    <style>
      .st0, .st1 {
        fill: #fff;
      }

      .st0, .st2 {
        fill-rule: evenodd;
      }

      .st2 {
        fill: none;
      }
    </style>
  </defs>
  <path class="st1" d="M562.79,306.15c-10.22-45.94-44.72-80.01-92.93-98.63v31.62c24.49,20.41,42.03,47.72,49.31,80.44,21.42,96.25-54.05,202.85-168.58,238.09-114.52,35.25-224.72-14.21-246.14-110.46-12.4-55.71,7.66-114.88,48.97-161.68l-7.88-5.29-1.81-3.37c-62.73,52.67-96.75,121.55-82.9,183.76,21.59,97.05,151.47,141.14,290.08,98.48,138.62-42.65,233.48-155.91,211.88-252.96Z"/>
  <g>
    <path class="st0" d="M306.07,297.66c.02-1.18-1.03-1.42-2.02-1.42h-1.91l-.02,2.96,1.69.03c1.19-.03,2.25-.08,2.25-1.57Z"/>
    <path class="st0" d="M376.27,174.46c-4.65-.02-7.54,3.92-7.57,8.65-.02,5.04,3.04,8.54,7.48,8.57,4.46.02,7.6-3.46,7.61-8.53.05-4.7-2.83-8.66-7.52-8.7Z"/>
    <path class="st0" d="M257.42,173.92c-4.66,0-7.59,3.95-7.6,8.66-.03,5.04,3.12,8.56,7.53,8.59,4.45,0,7.59-3.46,7.59-8.51.03-4.72-2.86-8.7-7.52-8.74Z"/>
    <path class="st0" d="M297.28,299.77c0,3.99,2.87,6.97,6.52,6.99,3.62.01,6.53-2.94,6.54-6.94.02-3.94-2.85-6.92-6.49-6.93-3.65-.02-6.55,2.96-6.58,6.89ZM307.53,297.75c0,1.75-1.04,2.49-2.38,2.64l2.6,4.24h-1.57s-2.45-4.19-2.45-4.19h-1.62v4.17l-1.38-.02.04-9.57h3.52c2.21,0,3.24.83,3.24,2.73Z"/>
    <path class="st0" d="M474.2,255.38v-99.19c0-15.61-11.1-26.44-17.75-30.43-40.63-23.87-120.41-71.06-131.39-78.79-6.11-4.29-12.65-6.48-19.38-6.48-9.42,0-16.27,4.36-18.8,6.23-9.03,5.35-117.91,69.56-132.03,77.78-15.93,9.3-19.44,23.11-19,30.4-.07,6.98-.82,90.65-.82,106.4,0,18.17,13.95,29.22,22.8,33.21l127.37,76.63c6.7,3.78,13.18,5.69,19.25,5.69,8.29,0,13.63-3.46,16.27-5.8,12.41-7.24,124.64-72.81,137.04-80.17,14.83-8.81,17.35-26.11,16.46-35.49ZM466.71,261.42c-.05,16.5-12.44,23.03-12.44,23.03l.21.19-137.85,80.98c-3.97,2.35-8.26,4.5-13.25,4.49-4.96-.04-9.22-2.23-13.2-4.57l-137-82.14c-2.99-2.07-11.26-8.97-11.21-22.44.06-16.49.09-20.61.09-20.61,0,0,.7-12.81,7.63-11.86,34.36,20.05,136.2,79.42,136.2,79.42,7.31,4.28,11.15,6.16,17.08,6.21,6.18,0,10.09-2.09,17.07-6.06l137.88-78.81c8.23-2.86,8.89,11.57,8.89,11.57,0,0-.03,4.13-.1,20.61ZM234.89,190.55l-.06,14.22-18.86-.09c-4.49,0-8.08-3.59-8.04-8l.08-36.37,14.68.06-.14,30.11,12.34.07ZM223.54,212.65l-.14,30.29,15.41.08-.05,14.27-22.6-.08c-4.94-.02-8.92-3.66-8.9-8.08l.11-36.54,16.17.06ZM306.84,173.58l.05-13.29,13.65.07-.17,37.9c-.41,3.85-3.48,6.91-7.33,7.14-6.29-.04-8.39-4.79-8.39-4.79l-10.39-19.31h-.41c.45,3.06.86,5.94.84,8.89l-.08,14.42-13.63-.07.18-37.8c.43-4.01,3.79-7.1,7.85-7.1,5.96.03,8.17,4.99,8.17,4.99l10.39,20.29.43-.02c-.56-3.69-1.18-7.54-1.15-11.32ZM344.75,191.28c.55,0,1.1-.03,1.6-.12,2.53-.25,4.44-1.06,6.82-2.45l-.49,15.08c-2.33,1.24-7.82,1.74-10.45,1.74-11.53-.05-20.49-9.89-20.43-22.59.06-12.94,9.4-23.25,21.24-23.21,3.32.04,6.76.67,9.83,1.9l.34,15.01c-2.7-1.59-4.77-2.45-7.93-2.61-.24-.05-.47-.05-.66-.05-4.38,0-8.01,3.8-8.02,8.63-.04,4.88,3.77,8.67,8.15,8.67ZM334.86,213.22l-.06,15.05,9.92.02.05-15.01,15.61.09-.19,44.55-15.62-.08.08-15.48-9.92-.05-.07,15.49-15.6-.07.19-44.57,15.6.05ZM396.74,229.93l-.05,11.6-15.47-.08-.02,4.36,17.12.08-.05,12.19-25.18-.12c-3.51-.6-6.26-3.05-7.01-6.15l.15-32.51c.89-3.05,3.69-5.41,7.2-5.89l24.58.1-.04,12.18-16.7-.09v4.24s15.47.09,15.47.09ZM376.14,205.65c-12.31-.06-22.32-8.62-22.29-22.84.09-13.97,10.21-22.98,22.5-22.92,12.3.05,22.31,9.16,22.26,23.11-.07,14.22-10.11,22.72-22.47,22.65ZM302.05,212.36c3.74.02,7.61.71,11.06,1.89l.39,15.11c-3.02-1.63-5.36-2.45-8.92-2.63-.23-.03-.47-.03-.71-.03-4.95-.03-8.96,3.8-8.97,8.65-.03,4.91,4.2,8.67,9.15,8.69.64,0,1.23,0,1.75-.11,2.88-.28,5.03-1.06,7.65-2.47l-.51,15.17c-2.62,1.26-8.78,1.75-11.74,1.71-12.92-.06-22.99-9.96-22.93-22.65.07-13.02,10.5-23.38,23.8-23.34ZM311.93,299.81c0,4.83-3.76,8.33-8.14,8.33-4.41-.05-8.13-3.58-8.1-8.39,0-4.75,3.76-8.28,8.17-8.27,4.38.04,8.11,3.58,8.07,8.34ZM257.28,205.13c-12.33-.05-22.3-8.64-22.24-22.85.05-13.94,10.16-22.96,22.47-22.91,12.26.05,22.32,9.15,22.24,23.1-.04,14.22-10.1,22.69-22.47,22.66ZM273.49,229.38l-.05,11.59-15.49-.06-.04,4.37,17.15.05-.07,12.23-25.19-.12c-3.48-.63-6.2-3.08-6.99-6.2l.16-32.47c.87-3.06,3.71-5.41,7.2-5.92l24.56.12-.05,12.19-16.68-.09-.04,4.24,15.51.07ZM467.26,177.21s-.7,12.8-7.63,11.86c-34.37-20.02-136.19-79.42-136.19-79.42-7.33-4.27-11.16-6.15-17.08-6.21-6.19,0-10.11,2.08-17.06,6.07v-.02l-137.89,78.82c-8.22,2.83-8.86-11.6-8.86-11.6,0,0,0-4.12.07-20.6.05-16.49,12.44-23.03,12.44-23.03l-.21-.16,137.85-81c3.99-2.32,8.24-4.49,13.24-4.48,4.97.02,9.22,2.22,13.2,4.59l137.03,82.13c2.98,2.07,11.22,8.95,11.18,22.44-.08,16.49-.09,20.61-.09,20.61Z"/>
  </g>
  <path id="SVGID" class="st2" d="M304.42,376.84c-6.07,0-12.55-1.91-19.25-5.69l-127.37-76.63c-8.85-3.99-22.8-15.04-22.8-33.21,0-15.75.76-99.42.82-106.4-.43-7.28,3.08-21.09,19-30.4,14.12-8.23,123-72.44,132.03-77.78,2.53-1.87,9.38-6.23,18.8-6.23,6.74,0,13.27,2.18,19.38,6.48,10.99,7.73,90.76,54.92,131.39,78.79,6.65,3.99,17.75,14.82,17.75,30.43v99.19c.88,9.38-1.63,26.68-16.46,35.49-12.41,7.36-124.63,72.93-137.04,80.17-2.64,2.33-7.98,5.8-16.27,5.8"/>
  <g>
    <g>
      <path class="st1" d="M153.78,490.09c.52-3.08,2.2-4.31,4.53-4.71l15.41-2.66c1.92-.33,3.22.02,2.85,2.21-.37,2.19-1.87,3.03-3.79,3.36l-12.69,2.19-1.1,6.58,11.13-1.92c1.72-.3,3-.03,2.64,2.13-.36,2.15-1.81,2.89-3.53,3.19l-11.13,1.92-1.23,7.34,13.01-2.25c1.92-.33,3.22.02,2.85,2.21-.37,2.19-1.87,3.03-3.79,3.36l-15.74,2.72c-2.32.4-3.68-.31-3.16-3.38l3.74-22.26Z"/>
      <path class="st1" d="M182.45,495.49l-4.62-8.82c-.29-.56-.46-1.19-.32-1.99.3-1.81,1.95-3.49,3.83-3.81,1.56-.27,2.16.57,2.44,1.22l3.31,7.82,6.54-9.52c.87-1.26,1.53-1.9,2.97-2.15,1.6-.28,3.01.38,2.64,2.57-.1.59-.51,1.44-.91,1.96l-8.42,11.44,4.79,9.2c.5.98.8,1.46.67,2.26-.38,2.24-2.1,3.68-3.94,4-1.08.19-1.96.09-2.49-1.13l-3.72-8.41-7.3,10.55c-.72,1.07-1.79,1.62-2.79,1.79-1.92.33-2.95-.72-2.67-2.4.12-.72.37-1.5,1.33-2.81l8.67-11.77Z"/>
      <path class="st1" d="M207.57,482.51l-6.21,1.07c-1.88.32-3.23-.42-2.92-2.32.32-1.9,2.01-3.17,3.89-3.5l18.98-3.28c1.88-.32,3.23.42,2.91,2.32-.32,1.9-2.01,3.17-3.89,3.5l-6.21,1.07-3.64,21.63c-.35,2.07-1.86,3.68-3.86,4.03-2,.35-3.05-.82-2.7-2.89l3.64-21.63Z"/>
      <path class="st1" d="M225.56,477.69c.52-3.08,2.2-4.31,4.52-4.71l10.93-1.89c7.81-1.35,9.13,2.8,8.47,6.72-.55,3.29-2.94,6.85-6.19,8.15v.08c3.26-.07,3.43,2.39,2.91,5.47-.59,3.5.07,4.65-.17,6.09-.27,1.6-2.02,2.97-3.54,3.23-3.6.62-3.27-3-3.06-4.22.89-5.31.33-7.3-3.27-6.68l-6.48,1.12-1.5,8.9c-.35,2.07-1.86,3.68-3.86,4.03-2,.35-3.05-.83-2.7-2.89l3.93-23.4ZM230.54,486l6.57-1.13c2.48-.43,5.08-1.53,5.65-4.95.55-3.25-1.19-3.76-4.08-3.27l-6.77,1.17-1.37,8.18Z"/>
      <path class="st1" d="M260.09,469.31c.82-1.66,1.95-2.39,3.56-2.66l1.56-.27c1.48-.26,2.74-.1,3.1,1.92l4.02,21.86c.13.63.32,1.79.19,2.55-.28,1.69-1.91,3.28-3.59,3.57-1.44.25-2.39-.12-2.64-1.39l-.83-4.77-10.57,1.83-2.57,5.36c-.67,1.42-1.68,2.13-3.24,2.4-1.8.31-2.84-.66-2.53-2.51.13-.76.73-2.05,1.09-2.77l12.46-25.12ZM263.14,474.02h-.08s-5.93,12.87-5.93,12.87l7.69-1.33-1.68-11.54Z"/>
      <path class="st1" d="M288.25,466.86c.52-3.08,2.2-4.31,4.52-4.71l10.05-1.74c5.52-.95,9.49,1.14,8.35,7.89-.93,5.52-5.26,10.24-11.63,11.34l-7.29,1.26-1.38,8.22c-.35,2.07-1.86,3.68-3.86,4.03-2,.35-3.05-.83-2.7-2.89l3.93-23.4ZM293.16,475.59l6.13-1.06c2.64-.46,4.89-2.48,5.33-5.1.51-3.04-1.32-3.95-4.56-3.39l-5.45.94-1.45,8.6Z"/>
      <path class="st1" d="M314.43,462.33c.52-3.08,2.2-4.31,4.53-4.71l10.93-1.89c7.81-1.35,9.13,2.8,8.47,6.72-.55,3.29-2.94,6.85-6.19,8.15v.08c3.26-.08,3.43,2.39,2.91,5.47-.59,3.5.07,4.65-.17,6.09-.27,1.6-2.02,2.97-3.54,3.23-3.6.62-3.26-3-3.06-4.22.89-5.31.33-7.3-3.27-6.68l-6.49,1.12-1.5,8.9c-.35,2.07-1.86,3.68-3.86,4.03-2,.35-3.05-.82-2.7-2.89l3.93-23.4ZM319.4,470.64l6.57-1.13c2.48-.43,5.08-1.53,5.65-4.95.55-3.25-1.19-3.76-4.08-3.27l-6.77,1.17-1.38,8.18Z"/>
      <path class="st1" d="M356.18,450.49c9.45-1.63,13.46,4.1,11.96,13-1.44,8.56-7.46,17.09-17.31,18.79-10.33,1.79-13.38-4.56-11.84-13.76,1.5-8.9,7.73-16.4,17.18-18.03ZM351.77,476.72c5.97-1.03,8.83-6.27,9.81-12.09.98-5.82-.97-9.49-6.33-8.57-5.37.93-8.7,5.52-9.68,11.34-.98,5.82.04,10.39,6.21,9.32Z"/>
      <path class="st1" d="M378.54,452.97l-6.21,1.07c-1.88.33-3.23-.42-2.92-2.32.32-1.9,2.01-3.17,3.89-3.5l18.98-3.28c1.88-.33,3.23.42,2.91,2.32-.32,1.9-2.01,3.17-3.89,3.5l-6.21,1.07-3.64,21.63c-.35,2.07-1.86,3.68-3.86,4.03-2,.35-3.05-.83-2.7-2.89l3.64-21.63Z"/>
      <path class="st1" d="M396.69,448.12c.52-3.08,2.2-4.31,4.52-4.71l15.42-2.66c1.92-.33,3.22.02,2.85,2.21-.37,2.19-1.87,3.03-3.79,3.36l-12.69,2.19-1.11,6.58,11.13-1.92c1.72-.3,3-.03,2.64,2.13-.36,2.15-1.81,2.89-3.53,3.19l-11.13,1.92-1.23,7.34,13.01-2.25c1.92-.33,3.22.02,2.85,2.21-.37,2.19-1.87,3.02-3.79,3.36l-15.73,2.72c-2.32.4-3.68-.31-3.16-3.38l3.74-22.26Z"/>
      <path class="st1" d="M422.14,442.62c.35-2.07,1.86-3.68,3.86-4.03,2-.35,3.05.82,2.7,2.89l-4.13,24.54c-.35,2.07-1.86,3.68-3.87,4.03-2,.35-3.05-.83-2.7-2.89l4.12-24.54ZM427.97,431.05c.91-.81,1.96-1.73,2.92-1.9,1.6-.28,1.91,1.1,1.77,1.95-.14.8-.79,1.69-1.87,2.53l-4.04,3.19c-1.12.89-1.57,1.01-1.97,1.08-.92.16-1.94-.28-1.7-1.71.13-.76.49-1.31,1.5-2.22l3.37-2.92Z"/>
      <path class="st1" d="M432.61,441.38c.48-2.87,2-4.28,4.8-4.76,1.36-.23,2.47.11,2.98,1.25l8.21,17.54h.08s3.03-18.02,3.03-18.02c.37-2.23,1.76-3.54,3.72-3.88,1.96-.34,2.98.55,2.6,2.78l-4.01,23.82c-.46,2.74-1.84,4.49-4.61,4.97-2.08.36-2.68.01-3.29-1.23l-8.22-17h-.08s-2.94,17.51-2.94,17.51c-.38,2.23-1.76,3.54-3.72,3.88-1.96.34-2.98-.55-2.6-2.78l4.05-24.08Z"/>
      <path class="st1" d="M468.69,433.27c.82-1.66,1.95-2.39,3.56-2.66l1.56-.27c1.48-.26,2.74-.1,3.1,1.92l4.02,21.86c.13.63.32,1.79.19,2.55-.29,1.69-1.91,3.28-3.59,3.57-1.44.25-2.39-.12-2.64-1.39l-.83-4.77-10.57,1.83-2.57,5.36c-.67,1.43-1.68,2.13-3.24,2.4-1.8.31-2.84-.66-2.53-2.51.13-.76.73-2.05,1.09-2.77l12.46-25.12ZM471.74,437.98h-.08s-5.93,12.87-5.93,12.87l7.69-1.33-1.68-11.54Z"/>
    </g>
    <g>
      <path class="st1" d="M170.89,403.58l-22.58,3.91c-.62.88-1.03,1.95-1.24,3.18l-9.49,56.52c-.48,2.87.57,4.35,3.03,4.35.43,0,.89-.04,1.4-.13l5.58-.97c.62-.88,1.03-1.94,1.24-3.17l2.61-15.52,5.22-.9.35-2.08,11.71-2.03c2.22-.39,4.37-1.02,6.41-1.88,7.43-5,12.78-13.1,14.31-22.19,2.25-13.44-5.19-21.41-18.55-19.09ZM177.89,422.65c-.84,5.05-4.05,9.21-9.37,10.47-1.65,1.6-3.83,2.73-6.47,3.19l-8.27,1.43,3.04-18.12,5.22-.91.35-2.07,8.55-1.5c.67-.11,1.29-.17,1.86-.17,4.22,0,5.88,3,5.09,7.68ZM172.8,415.97c-.52,0-1.09.06-1.69.16l-7.85,1.37-.17,1.03,2.29-.4c5.58-.96,7.85,2.19,6.95,7.51-.38,2.26-1.22,4.32-2.53,6.04,3.77-1.47,6.37-4.76,7.11-9.2.4-2.35.12-4.17-.79-5.25-.71-.83-1.82-1.26-3.32-1.26ZM168.89,447.72l-11.01,1.91-.17,1.03,5.45-.94c2.65-.46,5.2-1.27,7.59-2.39-.61.16-1.23.28-1.86.39ZM140.61,472.54c-1.43,0-2.53-.43-3.25-1.28-.81-.97-1.07-2.39-.76-4.23l9.48-56.52c.18-1.03.48-1.96.92-2.78-3.08.75-4.97,2.78-5.49,5.92l-9.5,56.53c-.55,3.37.98,4.82,4.44,4.22l6.24-1.08c1.55-.27,2.84-.84,3.83-1.68l-4.34.75c-.56.1-1.09.15-1.57.15Z"/>
      <path class="st1" d="M194.86,410.4l-3.23,19.21c1.63-3.08,2.78-6.42,3.37-9.92.58-3.49.52-6.62-.14-9.29ZM194.99,463.12c-1.43,0-2.52-.43-3.24-1.28-.81-.96-1.07-2.39-.76-4.24l9.48-56.52c.17-1.01.47-1.93.91-2.75-3.07.73-4.96,2.77-5.49,5.91l-.67,3.97h0c1.25,3.25,1.51,7.18.77,11.64-.76,4.54-2.44,8.81-4.83,12.59l-4.75,28.32c-.56,3.37.97,4.83,4.43,4.22l6.24-1.08c1.54-.26,2.82-.83,3.81-1.67l-4.32.74c-.57.1-1.1.15-1.58.15ZM243.19,411.47c1.63-9.72-2.13-15.69-9.42-17.24-2.8-.6-6.08-.48-13.1.73l-17.97,3.12c-.62.88-1.04,1.94-1.25,3.17l-9.47,56.52c-.03.19-.06.38-.07.56-.02.09-.03.18-.03.26-.01.15-.02.3-.02.44,0,.77.15,1.4.45,1.88.1.16.21.3.34.43s.28.24.44.34c.23.14.49.24.78.31.33.09.71.13,1.12.13s.89-.04,1.4-.13l5.59-.96c.62-.88,1.04-1.95,1.25-3.18l2.91-17.38,5.22-.91.35-2.08,7.87-1.37,7.01,17.12c.41.92.95,1.6,1.63,2.04.26.17.53.31.83.4.49.18,1.05.26,1.67.26.46,0,.97-.04,1.51-.14l6.43-1.12c.64-1.15.68-2.52,0-3.95l-6.92-15.5c-1.16-2.52-1.91-3.57-1.91-3.57l.03-.18c7.38-4.54,12.14-12.9,13.33-20ZM222.6,421.92c-1.76,1.68-4.08,2.81-6.8,3.28l-7.31,1.26,2.73-16.26,5.21-.9.35-2.09,5.67-.98c1.58-.27,2.9-.41,4-.41.85,0,1.57.08,2.19.25,2.96.67,3.4,3.03,2.83,6.41-.82,4.9-4.15,8.23-8.87,9.44ZM228.38,407.03c-.54-.14-1.17-.21-1.93-.21-1.03,0-2.28.13-3.83.4l-4.97.85-.18,1.05c2.48-.4,4.27-.42,5.6-.07,2.96.67,3.41,3.05,2.84,6.41-.33,1.92-1.03,3.61-2.07,5.02,3.62-1.4,6-4.28,6.65-8.17.64-3.85-.32-4.87-2.11-5.28ZM232.4,456.78c-.6.1-1.17.15-1.68.15-2.4,0-4.04-1.07-5.05-3.33l-6.71-16.36-6.39,1.11-.17,1.03,1.62-.28,7.02,17.12c1.01,2.27,2.75,3.06,5.62,2.56l7.31-1.27c1.58-.27,2.85-.86,3.74-1.66l-5.31.93Z"/>
      <path class="st1" d="M241.83,422.92c3.72-4.36,6.13-9.68,6.93-14.45.18-1.06.29-2.09.34-3.06-3.64,5.38-6.17,11.35-7.27,17.51ZM277.48,449.55c-2.45.42-4.81.63-7.06.63-7.29,0-13.43-2.2-17.7-6.44-5.43-5.4-7.52-13.74-5.89-23.48,2.08-12.38,9.68-23.68,20.17-31.34-6.71,3.8-12.49,9.01-16.87,15.02.02,1.47-.11,3.04-.39,4.7-.98,5.87-4,11.67-8.18,16.08-2.5,18.82,9.45,30.93,30.27,27.32,5.04-.87,9.85-2.53,14.3-4.82-2.8,1.03-5.69,1.82-8.65,2.33ZM283.41,383.01c-2.97.51-5.85,1.29-8.63,2.31h-.01c-4.73,2.4-9.06,5.51-12.83,9.15-7.32,7.09-12.48,16.18-14.12,25.95-1.58,9.42.41,17.45,5.61,22.61,5.34,5.31,13.82,7.28,23.88,5.53,5.6-.97,10.97-2.94,15.88-5.7,0,0,.02,0,.02-.02,10.72-7.85,18.34-19.56,20.42-31.96,3.21-19.15-8.88-31.57-30.22-27.87ZM302.29,410.99c-1.8,10.84-9.89,20.11-19.7,23-.01.01-.02.01-.03.01-2.55,1.52-5.32,2.59-8.22,3.1-10.85,1.87-17.09-5.38-15.18-16.79,1.45-8.63,7.42-16.42,15.22-20.22,3.49-2.85,7.62-4.85,12.01-5.61,5.24-.91,9.73.18,12.65,3.08,3.05,3.03,4.2,7.8,3.25,13.43ZM289.87,395.17c-1.06,0-2.16.1-3.31.29-2.94.51-5.76,1.59-8.33,3.13.88-.26,1.77-.47,2.68-.63,10.86-1.88,17.17,5.01,15.33,15.93-1.17,6.98-5.03,13.39-10.34,17.75,2.93-1.4,5.61-3.4,7.91-5.84,3.81-4.05,6.55-9.29,7.5-14.98.89-5.3-.17-9.75-2.98-12.55-2.05-2.04-4.99-3.1-8.46-3.1Z"/>
      <path class="st1" d="M313.23,386.03c.92.91,1.74,1.92,2.44,3l-1.2.21c-2.69.47-3.82-.61-3.39-3.13l.28-1.69c.66.49,1.28,1.03,1.87,1.61Z"/>
      <path class="st1" d="M333.11,439.34l1.86-.32c-.79.81-1.88,1.33-3.27,1.57l-4.32.75c-2.6.45-3.72-.62-3.28-3.24l8.73-52.04-16.08,2.79c-.8-1.28-1.74-2.46-2.81-3.53-.74-.73-1.53-1.4-2.38-2.01.46-2.42,2.03-3.98,4.66-4.45l.3-.05c-.19.47-.33.98-.42,1.53l-.45,2.61c-.24,1.46-.03,2.59.62,3.37.59.69,1.49,1.05,2.66,1.05.39,0,.82-.04,1.28-.12l16.96-2.95-8.5,50.65c-.25,1.52-.04,2.68.62,3.47.59.69,1.46,1.03,2.6,1.03.37,0,.78-.03,1.22-.11Z"/>
      <path class="st1" d="M366.65,379.2c-.77.8-1.84,1.33-3.18,1.56l-12.08,2.09.17-1.04,15.09-2.61Z"/>
      <path class="st1" d="M368.51,373.63l-.45,2.61c-.11.67-.3,1.27-.58,1.8l-16.79,2.91-.35,2.08-5.22.9-8.73,52.05c-.11.71-.31,1.33-.59,1.88l-2.86.5c-.12.02-.25.04-.36.05s-.22.02-.33.02c-.1.01-.21.02-.3.02-.14,0-.27,0-.4-.02-.18-.02-.34-.05-.5-.09-.05,0-.09-.02-.14-.04-.04,0-.09-.02-.13-.04-.08-.03-.16-.07-.23-.11-.03-.01-.05-.03-.08-.04-.05-.02-.09-.06-.13-.09-.07-.03-.13-.09-.19-.15-.54-.54-.71-1.46-.49-2.76l8.73-52.04-18.35,3.19c-.2.03-.4.06-.58.08-.19.02-.36.03-.53.03h0c-.09,0-.15-.01-.24-.02-.05,0-.1,0-.14-.01-.24-.02-.46-.06-.65-.12-1.12-.36-1.53-1.41-1.25-3.1l.44-2.61c.12-.71.34-1.35.64-1.91l47.49-8.21c2.6-.45,3.71.72,3.3,3.24Z"/>
      <path class="st1" d="M374.14,369.48c.02.35-.01.73-.08,1.16l-.44,2.62c-.26,1.57-.97,2.77-2.11,3.55l.64-3.81c.25-1.52.93-2.72,1.99-3.52Z"/>
      <path class="st1" d="M403.24,427.2c-.8.81-1.89,1.34-3.22,1.57l-34.4,5.95c-2.6.44-3.72-.62-3.28-3.24l8.96-53.39c1.8-.89,2.95-2.5,3.31-4.67l.44-2.62c.12-.71.13-1.34.04-1.89.5-.24,1.05-.41,1.66-.51l.39-.07c-.18.46-.32.97-.41,1.51l-9.81,58.48c-.25,1.52-.04,2.69.62,3.47.58.69,1.46,1.04,2.6,1.04.37,0,.78-.04,1.21-.11l31.89-5.52Z"/>
      <path class="st1" d="M411.07,371.52c-.79.79-1.88,1.32-3.2,1.55l-18.24,3.16.17-1.04,21.27-3.67Z"/>
      <path class="st1" d="M400.97,400.19c-.8.82-1.89,1.35-3.23,1.58l-12.78,2.21.18-1.05,15.83-2.74Z"/>
      <path class="st1" d="M412.98,365.93l-.44,2.61c-.11.67-.3,1.28-.59,1.81l-23.02,3.98-.35,2.08-5.21.9-2.92,17.37,19.03-3.28c2.59-.46,3.82.61,3.38,3.13l-.43,2.62c-.12.71-.33,1.34-.62,1.89l-17.54,3.03-.35,2.09-5.21.9-2.99,17.85,26.04-4.51c2.59-.45,3.81.6,3.39,3.13l-.44,2.62c-.12.71-.33,1.34-.63,1.89l-32.9,5.69c-.38.07-.72.1-1.04.1-.44,0-.82-.06-1.14-.2-.24-.08-.44-.21-.6-.38-.1-.1-.19-.21-.26-.33-.08-.12-.14-.26-.18-.4-.14-.41-.18-.91-.12-1.5.02-.17.04-.35.07-.53l9.8-58.48c.12-.7.32-1.33.62-1.88l31.28-5.42c2.59-.46,3.79.7,3.37,3.22Z"/>
      <path class="st1" d="M420.07,424.28l1.87-.33c-.77.81-1.84,1.34-3.19,1.57l-4.41.76c-2.59.46-3.72-.62-3.28-3.23l9.81-58.49c.42-2.52,2.01-4.15,4.6-4.6l.38-.07c-.18.47-.32.98-.41,1.52l-9.8,58.48c-.26,1.52-.05,2.68.62,3.47.58.69,1.45,1.04,2.59,1.04.37,0,.79-.04,1.22-.12Z"/>
      <path class="st1" d="M433.16,362.44l-9.81,58.48c-.11.71-.31,1.33-.59,1.88l-2.86.5c-.38.07-.73.1-1.05.1-.19,0-.37-.01-.54-.04-.34-.04-.63-.14-.87-.29-.38-.23-.64-.58-.78-1.06-.12-.39-.15-.86-.1-1.42.02-.17.04-.34.07-.53l9.8-58.48c.12-.7.32-1.34.62-1.89l2.84-.49c2.59-.46,3.7.71,3.27,3.24Z"/>
      <path class="st1" d="M441.85,420.28c-.46.89-1.29,1.47-2.33,1.65l-2.02.35c-1.54.26-2.16-.44-1.92-1.94l10.24-61c.24-1.49,1.16-2.47,2.7-2.74l1.85-.32-10.21,60.91c-.17,1.01-.02,1.81.46,2.38.23.27.61.58,1.23.71Z"/>
      <path class="st1" d="M487.91,412.41c-.44.82-1.2,1.35-2.28,1.53l-2.3.39c-1.25.23-2.04-.1-2.53-1.01l-25.04-38.69.54-3.19c.28-1.7.51-3.8.66-5.54.8,1.61,1.81,3.55,2.69,4.99l25.85,39.96c.52.96,1.34,1.48,2.41,1.56Z"/>
      <path class="st1" d="M496.49,348.3l-7.51,44.84c-.29,1.69-.51,3.79-.67,5.53-.8-1.61-1.8-3.55-2.68-4.99l-.63-.98,6.94-41.35c.25-1.49,1.26-2.48,2.79-2.76l1.76-.29Z"/>
      <path class="st1" d="M498.57,350.2l-10.23,61c-.01.07-.03.14-.05.21-.04.01-.07.01-.1.01-.85,0-1.44-.35-1.84-1.08l-25.85-39.97c-1.76-2.88-4.08-7.91-4.08-7.91l-.19.03s-.34,5.33-.91,8.78l-.36,2.13-.02-.04c-1.76-2.87-4.08-7.92-4.08-7.92l-.19.04s-.34,5.32-.92,8.78l-7.54,44.93s-.02.09-.03.13c-.21-.03-.39-.09-.55-.18-.07-.05-.14-.1-.19-.16-.11-.11-.2-.26-.26-.44-.11-.31-.11-.71-.03-1.19l10.23-61.01c.01-.07.02-.13.04-.2.91-.02,1.54.32,2.03,1.06l25.76,39.99c1.75,2.86,4.08,7.91,4.08,7.91l.2-.05s.33-5.31.91-8.76l.36-2.13.02.04c1.75,2.87,4.07,7.91,4.07,7.91l.2-.04s.33-5.32.91-8.77l7.54-44.94s.02-.09.03-.13c.89.12,1.23.8,1.04,1.97Z"/>
      <path class="st1" d="M194.86,410.4h0c-1.59-6.41-6.55-10.2-14-10.2-1.38,0-2.85.13-4.4.4l-23.25,4.02c-2.19.38-3.84,1.35-4.9,2.87-.62.88-1.03,1.95-1.24,3.18l-9.49,56.52c-.48,2.87.57,4.35,3.03,4.35.43,0,.89-.04,1.4-.13l5.58-.97.66-.11c3.46-.6,5.59-2.69,6.15-6.05l2.26-13.43.35-2.08,11.71-2.03c2.22-.39,4.37-1.02,6.41-1.88,7.07-2.92,12.93-8.43,16.5-15.24h0c1.63-3.09,2.78-6.43,3.37-9.93.58-3.49.52-6.62-.14-9.29ZM168.52,433.12c-.29.08-.6.15-.91.2l-8.26,1.43,2.69-16.04.35-2.07,8.55-1.5c.67-.11,1.29-.17,1.86-.17,4.22,0,5.88,3,5.09,7.68-.84,5.05-4.05,9.21-9.37,10.47Z"/>
      <g>
        <path class="st1" d="M239.33,391.25c-.4-.09-.81-.16-1.24-.21-.72-.1-1.48-.15-2.34-.15-1.69,0-3.75.19-6.5.6-.92.14-1.91.3-3,.49l-18.65,3.22c-2.19.38-3.84,1.36-4.9,2.88-.62.88-1.04,1.94-1.25,3.17l-9.47,56.52c-.03.19-.06.38-.07.56-.02.09-.03.18-.03.26-.01.15-.02.3-.02.44,0,.77.15,1.4.45,1.88.1.16.21.3.34.43s.28.24.44.34c.23.14.49.24.78.31.33.09.71.13,1.12.13s.89-.04,1.4-.13l5.59-.96.66-.11c3.46-.6,5.58-2.7,6.14-6.05l2.58-15.31.35-2.08,7.87-1.37,7.01,17.12c.41.92.95,1.6,1.63,2.04.26.17.53.31.83.4.49.18,1.05.26,1.67.26.46,0,.97-.04,1.51-.14l6.43-1.12.87-.15c4.14-.71,6.2-3.61,4.68-6.79l-6.9-15.5c-1.16-2.52-1.93-3.56-1.93-3.56l.04-.18c2.43-1.5,4.58-3.42,6.41-5.57,3.72-4.36,6.13-9.68,6.93-14.45.18-1.06.29-2.09.34-3.06.41-7.9-3.27-12.78-9.77-14.16ZM222.6,421.92c-.4.12-.82.21-1.24.28l-7.31,1.26,2.38-14.16.35-2.09,5.67-.98c1.58-.27,2.9-.41,4-.41.85,0,1.57.08,2.19.25,2.96.67,3.4,3.03,2.83,6.41-.82,4.9-4.15,8.23-8.87,9.44Z"/>
        <path class="st1" d="M228.22,455.27c.26.17.53.31.83.4-.3-.1-.57-.24-.83-.4Z"/>
      </g>
      <path class="st1" d="M315.67,389.03c-.7-1.08-1.52-2.09-2.44-3-.59-.58-1.21-1.12-1.87-1.61-3.93-3-9.15-4.54-15.22-4.54-2.25,0-4.61.21-7.07.64-5.01.86-9.83,2.51-14.29,4.8h-.01c-4.73,2.4-9.06,5.51-12.83,9.15-7.32,7.09-12.48,16.18-14.12,25.95-1.58,9.42.41,17.45,5.61,22.61,5.34,5.31,13.82,7.28,23.88,5.53,5.6-.97,10.97-2.94,15.88-5.7,0,0,.02,0,.02-.02,13.16-7.38,23.05-20.44,25.5-35.03,1.23-7.39.16-13.91-3.04-18.78ZM282.59,433.99s-.02.01-.03.01c-.84.25-1.7.45-2.56.6-1.16.2-2.28.3-3.35.3-3.66,0-6.8-1.16-9.04-3.39-3.19-3.17-4.4-8.24-3.38-14.27,1.13-6.76,4.93-12.91,10.15-17.15,3.49-2.85,7.62-4.85,12.01-5.61,5.24-.91,9.73.18,12.65,3.08,3.05,3.03,4.2,7.8,3.25,13.43-1.8,10.84-9.89,20.11-19.7,23Z"/>
      <g>
        <path class="st1" d="M374.14,369.48c.02.35-.01.73-.08,1.16l-.44,2.62c-.26,1.57-.97,2.77-2.11,3.55-.68.47-1.51.8-2.48.96l-1.55.27-16.79,2.91-.35,2.08-8.38,49.95c-.44,2.62-2,4.17-4.69,4.62l-1.47.26-2.86.5c-.12.02-.25.04-.36.05s-.22.02-.33.02c-.1.01-.21.02-.3.02-.14,0-.27,0-.4-.02-.18-.02-.34-.05-.5-.09-.05,0-.09-.02-.14-.04-.04,0-.09-.02-.13-.04-.08-.03-.16-.07-.23-.11-.03-.01-.05-.03-.08-.04-.05-.02-.09-.06-.13-.09-.07-.03-.13-.09-.19-.15-.54-.54-.71-1.46-.49-2.76l8.73-52.04-18.35,3.19c-.2.03-.4.06-.58.08-.19.02-.36.03-.53.03h0c-.4,0-.74-.05-1.03-.15-1.12-.36-1.53-1.41-1.25-3.1l.44-2.61c.12-.71.34-1.35.64-1.91.76-1.45,2.12-2.38,4.06-2.72l49-8.48c.37-.07.71-.1,1.01-.1,1.49,0,2.29.76,2.35,2.18Z"/>
        <path class="st1" d="M370.78,367.4c.37-.06.7-.1,1.01-.1-.3,0-.64.03-1.01.1Z"/>
      </g>
      <path class="st1" d="M418.55,362.94l-.44,2.62c-.42,2.52-2.09,4.08-4.68,4.53l-1.48.26-23.02,3.98-.35,2.08-2.56,15.29,19.02-3.29c.39-.07.75-.1,1.08-.1,1.84,0,2.67,1.09,2.31,3.23l-.44,2.61c-.43,2.62-2.09,4.17-4.69,4.63l-1.49.26-17.54,3.03-.35,2.09-2.64,15.75,26.04-4.5c.39-.07.74-.1,1.07-.1.79,0,1.39.2,1.79.58.11.1.19.21.27.33.16.25.26.54.31.88.06.41.05.89-.04,1.44l-.45,2.62c-.44,2.61-2.09,4.16-4.69,4.62l-1.5.26-32.9,5.69c-.38.07-.72.1-1.04.1-.44,0-.82-.06-1.14-.2-.24-.08-.44-.21-.6-.38-.1-.1-.19-.21-.26-.33-.08-.12-.14-.26-.18-.4-.13-.41-.17-.91-.12-1.5.02-.17.04-.35.07-.53l9.8-58.48c.12-.7.32-1.33.62-1.88.76-1.46,2.11-2.4,3.98-2.72l32.87-5.7c.36-.06.7-.09,1.01-.09,1.88,0,2.72,1.16,2.36,3.32Z"/>
      <g>
        <path class="st1" d="M438.73,359.44l-9.81,58.49c-.44,2.62-2,4.15-4.6,4.59l-1.56.28-2.86.5c-.38.07-.73.1-1.05.1-.19,0-.37-.01-.54-.04-.34-.04-.63-.14-.87-.29-.38-.23-.64-.58-.78-1.06-.12-.39-.15-.86-.1-1.42.02-.17.04-.34.07-.53l9.8-58.48c.12-.7.32-1.34.62-1.89.76-1.45,2.11-2.39,3.98-2.72l4.42-.77c.36-.06.69-.09,1-.09,1.88,0,2.64,1.16,2.28,3.33Z"/>
        <path class="st1" d="M418.85,423.4c.32,0,.67-.03,1.05-.1-.38.06-.73.1-1.05.1ZM418.31,423.36c-.34-.05-.62-.14-.87-.29.24.15.53.25.87.29Z"/>
      </g>
      <g>
        <path class="st1" d="M504.13,347.21l-10.23,61.01c-.26,1.5-1.17,2.47-2.7,2.74l-2.31.39c-.21.04-.41.06-.6.06-.04.01-.07.01-.1.01-.85,0-1.44-.35-1.84-1.08l-25.85-39.97c-1.76-2.88-4.08-7.91-4.08-7.91l-.19.03s-.34,5.33-.91,8.78l-.36,2.13-7.18,42.8c-.25,1.5-1.26,2.48-2.7,2.74l-2.01.35c-.22.03-.41.05-.59.05-.11,0-.21-.01-.3-.02-.21-.03-.39-.09-.55-.18-.07-.05-.14-.1-.19-.16-.11-.11-.2-.26-.26-.44-.11-.31-.11-.71-.03-1.19l10.23-61.01c.01-.07.02-.13.04-.2.29-1.38,1.19-2.27,2.65-2.52l2.31-.41c.25-.04.48-.06.7-.06.86,0,1.46.35,1.93,1.06l25.75,39.95.02.04c1.75,2.87,4.07,7.91,4.07,7.91l.2-.04s.33-5.32.91-8.77l7.54-44.94s.02-.09.03-.13c.28-1.42,1.27-2.35,2.76-2.61l1.93-.34c.21-.04.4-.06.58-.06.23,0,.43.03.61.09.17.06.31.15.43.27.32.33.42.88.29,1.63Z"/>
        <path class="st1" d="M441.15,417.35c-.08.48-.08.88.03,1.19-.1-.31-.11-.71-.03-1.19ZM441.15,417.35c-.08.48-.08.88.03,1.19-.1-.31-.11-.71-.03-1.19ZM441.15,417.35c-.08.48-.08.88.03,1.19-.1-.31-.11-.71-.03-1.19ZM441.15,417.35c-.08.48-.08.88.03,1.19-.1-.31-.11-.71-.03-1.19ZM441.15,417.35c-.08.48-.08.88.03,1.19-.1-.31-.11-.71-.03-1.19Z"/>
      </g>
    </g>
  </g>
</svg>