<?xml version="1.0" encoding="UTF-8" standalone="no"?>
<!-- Generator: Adobe Illustrator 14.0.0, SVG Export Plug-In . SVG Version: 6.00 Build 43363)  -->

<svg
   version="1.1"
   id="Layer_1"
   x="0px"
   y="0px"
   width="240"
   height="120"
   viewBox="0 0 240 120"
   enable-background="new 0 0 250 88"
   xml:space="preserve"
   sodipodi:docname="Logo-Asics.svg"
   inkscape:version="1.4.1-rc (06eac75fbf, 2025-03-29)"
   xmlns:inkscape="http://www.inkscape.org/namespaces/inkscape"
   xmlns:sodipodi="http://sodipodi.sourceforge.net/DTD/sodipodi-0.dtd"
   xmlns="http://www.w3.org/2000/svg"
   xmlns:svg="http://www.w3.org/2000/svg"><defs
   id="defs5" /><sodipodi:namedview
   id="namedview5"
   pagecolor="#ffffff"
   bordercolor="#000000"
   borderopacity="0.25"
   inkscape:showpageshadow="2"
   inkscape:pageopacity="0.0"
   inkscape:pagecheckerboard="0"
   inkscape:deskcolor="#d1d1d1"
   inkscape:zoom="3.546"
   inkscape:cx="100.1128"
   inkscape:cy="48.082346"
   inkscape:window-width="1920"
   inkscape:window-height="977"
   inkscape:window-x="0"
   inkscape:window-y="0"
   inkscape:window-maximized="1"
   inkscape:current-layer="g5" />
<g
   id="g5">
	<path
   fill="#000066"
   d="m 29.219,76.303 c -4.446,0 -6.583,-3.418 -5.467,-7.372 2.304,-8.195 17.109,-20.339 27.198,-20.339 7.357,0 6.797,6.583 2.484,12.198 L 51.05,63.429 C 42.499,71.82 34.572,76.303 29.219,76.303 m 36.06,-55.262 c -12.876,0.005 -27.055,7.882 -35.96,15.342 l 0.703,1.019 C 43.844,27.713 63.023,21.413 68.31,30.863 71.102,35.848 66.363,45.916 59.689,53.873 61.285,50.359 60.231,43.612 50.925,43.612 35.455,43.612 5,64.105 5,85.078 c 0,8.401 5.828,13.882 15.428,13.882 25.696,0 60.544,-42.12 60.544,-63.275 0,-7.473 -4.299,-14.644 -15.693,-14.644"
   id="path1"
   style="fill:#ffffff" />
	<path
   fill="#000066"
   d="m 98.361,76.303 c -1.496,0 -2.741,-0.522 -3.52,-1.475 -0.812,-0.999 -1.054,-2.415 -0.669,-3.877 0.855,-3.172 4.274,-5.664 7.79,-5.664 h 8.27 l -2.955,11.016 z m 23.768,-33.024 c -2.365,-2.908 -6.194,-4.209 -8.934,-4.209 H 98.167 l -2.551,9.514 h 14.173 l 1.358,0.143 c 0.014,0 1.301,0.15 2.019,1.116 0.58,0.808 0.665,2.008 0.248,3.582 l -0.67,2.504 h -8.93 c -7.686,0 -18.401,5.514 -20.79,14.42 -1.188,4.441 -0.147,8.288 2.161,11.115 2.29,2.806 6.612,4.355 11.281,4.355 h 8.27 -0.005 10.511 l 4.93,-18.411 3.629,-13.533 c 1.425,-5.321 -0.119,-8.701 -1.672,-10.596"
   id="path2"
   style="fill:#ffffff" />
	<path
   fill="#000066"
   d="m 225.361,39.07 c -4.066,0 -7.844,1.203 -10.916,3.48 -3.102,2.297 -4.813,5.057 -5.833,8.864 -2.213,8.251 4.271,12.233 9.481,15.056 3.737,2.024 6.969,3.77 6.269,6.356 -0.494,1.856 -1.305,3.48 -5.902,3.48 h -14.033 l -2.546,9.513 h 15.533 c 4.165,0 8.009,-0.867 11.106,-3.245 3.1,-2.386 4.852,-5.71 5.935,-9.767 1.04,-3.861 0.339,-7.549 -2.146,-10.301 -2.071,-2.311 -5.05,-3.916 -7.675,-5.334 -3.364,-1.81 -6.536,-3.518 -5.982,-5.588 0.339,-1.253 1.582,-3 4.299,-3 h 13.651 l 2.552,-9.514 z"
   id="path3"
   style="fill:#ffffff" />
	<path
   fill="#000066"
   d="m 143.921,39.07 c -4.065,0 -7.842,1.203 -10.915,3.48 -3.102,2.297 -4.813,5.057 -5.843,8.864 -2.208,8.251 4.281,12.233 9.49,15.056 3.739,2.024 6.963,3.77 6.27,6.356 -0.499,1.856 -1.306,3.48 -5.903,3.48 h -14.031 l -2.551,9.513 h 15.532 c 4.17,0 8.013,-0.867 11.11,-3.245 3.105,-2.386 4.853,-5.71 5.936,-9.767 1.036,-3.861 0.334,-7.549 -2.141,-10.301 -2.071,-2.311 -5.055,-3.916 -7.685,-5.334 -3.359,-1.81 -6.527,-3.518 -5.972,-5.588 0.333,-1.253 1.581,-3 4.293,-3 h 13.643 l 2.556,-9.514 z"
   id="path4"
   style="fill:#ffffff" />
	<polygon
   fill="#000066"
   points="165.115,23.07 152.932,69.819 163.225,69.819 175.398,23.07 "
   id="polygon4"
   style="fill:#ffffff"
   transform="translate(0,16)" />
	<path
   fill="#000066"
   d="m 202.781,39.07 c -18.121,0.065 -27.604,12.133 -30.614,23.375 -3.566,13.33 3.53,23.375 16.507,23.375 h 8.696 l 2.546,-9.513 h -8.693 c -4.857,0 -11.536,-3.822 -8.844,-13.862 2.138,-7.98 9.919,-13.86 18.454,-13.86 h 5.522 l 2.551,-9.514 h -6.125 z"
   id="path5"
   style="fill:#ffffff" />
</g>
</svg>
