<svg version="1.2" xmlns="http://www.w3.org/2000/svg" viewBox="0 0 240 120" width="240" height="120"><style>.a{fill:#fff}</style><path class="a" d="m3 62.3l2.5-3.4c2.6 2.7 6.8 4.8 11.1 4.8 4.6 0 8.2-2.3 8.2-5.7 0-4.3-5.7-5.5-9-6.2-5.8-1.3-11.7-4.1-11.7-10.2 0-5.8 5.1-9.7 12.4-9.7 4.9 0 9 1.8 11.4 4.4l-2.2 3.4c-1.8-2-5.4-3.7-9.3-3.7-4.3 0-7.6 2.2-7.6 5.4 0 3.8 4.9 5.3 8.3 6 3.4 0.7 12.5 2.9 12.5 10.4 0 6-5.7 10-13 10-5.1 0-10.4-2.1-13.6-5.5z"/><path class="a" d="m57.8 54.4c0 7.6-5.5 13.4-12.8 13.4-4.3 0-7.8-2-10-5.2v14.2h-4.3v-35.2h4.3v4.6c2.2-3.2 5.7-5.2 10-5.2 7.3 0 12.8 5.7 12.8 13.4zm-4.4 0c0-5.3-4-9.3-9.2-9.3-5.3 0-9.2 4-9.2 9.3 0 5.3 3.9 9.3 9.2 9.3 5.2 0 9.2-4 9.2-9.3z"/><path class="a" d="m57.9 54.4c0-7.7 5.9-13.4 13.7-13.4 7.7 0 13.6 5.7 13.6 13.4 0 7.6-5.9 13.4-13.6 13.4-7.8 0-13.7-5.8-13.7-13.4zm22.8 0c0-5.3-3.9-9.3-9.1-9.3-5.3 0-9.2 4-9.2 9.3 0 5.3 3.9 9.3 9.2 9.3 5.2 0 9.1-4 9.1-9.3z"/><path class="a" d="m100.8 41.2v4.4h-0.9c-5.4 0-8.7 3.5-8.7 8.8v12.8h-4.3v-25.6h4.3v4.4c1.9-3.1 4.9-4.8 8.7-4.8h0.9z"/><path class="a" d="m108.9 45.5v14.2c0 2.7 1.5 4 4.1 4 1.4 0 2.5-0.5 3.5-1v4.1c-1.3 0.7-2.6 1-4.4 1-5 0-7.6-2.7-7.6-7.4v-14.9h-4.6v-3.9h4.6v-6.9h4.3v6.9h7.7v3.9c0 0-7.6 0-7.6 0z"/><path class="a" d="m147.2 32.5v34.7h-7.8v-13.8h-13.9v13.8h-7.8v-34.7h7.8v13.6h13.9v-13.6z"/><path class="a" d="m149 57v-15.4h7.3v14.4c0 2.8 2 4.7 4.8 4.7 2.9 0 4.8-1.9 4.8-4.7v-14.4h7.3v15.4c0 6.5-4.7 10.8-12.1 10.8-7.3 0-12.1-4.3-12.1-10.8z"/><path class="a" d="m202.1 54.4c0 7.6-5.3 13.4-12.4 13.4-3.1 0-5.7-1.1-7.7-3.1v2.5h-7.3v-36.2h7.3v13.1c2-2 4.6-3.1 7.7-3.1 7.1 0 12.4 5.7 12.4 13.4zm-7.5 0c0-3.6-2.7-6.3-6.3-6.3-3.6 0-6.3 2.7-6.3 6.3 0 3.6 2.7 6.3 6.3 6.3 3.6 0 6.3-2.7 6.3-6.3z"/><path fill-rule="evenodd" class="a" d="m220.8 49.2l-7.8 18h-10.6l7.8-18-7.8-18h10.6z"/><path fill-rule="evenodd" class="a" d="m236.2 49.2l-7.8 18h-10.7l7.8-18-7.8-18h10.7z"/><path fill-rule="evenodd" class="a" d="m220.8 49.2l-7.8 18h-10.6l7.8-18z"/><path fill-rule="evenodd" class="a" d="m236.2 49.2l-7.8 18h-10.7l7.8-18z"/></svg>