<svg version="1.2" xmlns="http://www.w3.org/2000/svg" viewBox="0 0 240 120" width="240" height="120"><style>.a{fill:#fff}</style><path class="a" d="m146.4 115.2h-3c-5.9 0-11.8 0-17.7 0-2.9 0-5.7-0.1-8.5-0.9-4.4-1.3-9-2.3-13.4-3.7-5.1-1.6-10.2-3.3-15.2-5.3-4.1-1.6-8.2-3.5-11.7-6.3-1.8-1.3-3.5-2.9-4.6-5-1.4-2.9-0.7-5.6 1.1-7.9 2.7-3.4 6.4-5.6 10.3-7.4 3.3-1.5 6.6-2.8 10-4.1 1.6-0.6 3.2-1.1 4.7-1.8-1 0.2-2.1 0.5-3.1 0.7q-4.6 1.2-9.2 2.5-4.2 1.2-8.3 2.4c-5.1 1.6-10.1 3.4-14.8 6-2.6 1.4-5.1 3-6.8 5.6-1.8 2.7-1.4 5.2 0.5 7.6 2 2.6 4.7 4.3 7.5 5.9 4.6 2.6 9.6 4.6 14.6 6.3 5.6 1.9 11.3 3.6 16.9 5.3-0.1 0.1-0.3 0.1-0.5 0.1-6.2 0-12.4 0-18.6 0-0.9 0-1.7-0.5-2.5-0.8-3.3-1.3-6.6-2.5-9.8-4-4.5-2.1-8.9-4.3-12.8-7.4-2.1-1.7-4.1-3.5-5.4-5.9-1.6-2.9-1.7-5.9 0-8.8 1.7-2.9 4.3-4.8 7.1-6.4 1.3-0.7 2.6-1.3 3.8-2.1-1.1 0.3-2.2 0.6-3.3 1-4.7 1.6-9.3 3.5-13.7 5.9-2.6 1.4-5.2 3-7.2 5.3-1.5 1.6-2.7 3.5-2.5 5.9 0.1 1.6 0.8 3.1 1.8 4.3 1.9 2.5 4.4 4.2 6.9 5.7 4.4 2.7 9.1 4.6 13.9 6.4 0.6 0.2 1.3 0.5 1.9 0.9q-0.4 0-0.8 0c-4.9 0-9.7 0-14.5 0-0.7 0-1.4-0.3-2-0.6-3.4-1.8-6.7-3.8-9.6-6.3-2.2-2-4.3-4.1-5.5-7-1-2.6-1.1-5.3 0-8 1.2-3 3.5-5.1 6-7 4.1-3 8.7-5.1 13.4-6.8 4.4-1.5 8.9-3 13.4-4.3 3.7-1.1 7.4-1.8 11.2-2.7q3.8-0.8 7.6-1.5 3.7-0.7 7.3-1.3c3.8-0.6 7.5-1.3 11.2-1.9 3.2-0.5 6.4-0.9 9.7-1.4 3-0.5 6-1 9-1.4 2.4-0.4 4.7-0.6 7.1-0.8 2.4-0.3 4.8-0.7 7.2-1 2.1-0.2 4.1-0.4 6.1-0.6 2.5-0.3 4.9-0.7 7.4-1 2-0.2 4.1-0.4 6.1-0.6 2.1-0.2 4.2-0.5 6.3-0.8 1.7-0.2 3.3-0.3 5-0.5 1.6-0.1 3.3-0.4 4.9-0.6q1.7-0.2 3.3-0.3 2.8-0.3 5.6-0.6c1.3-0.2 2.5-0.2 3.8-0.4 1.8-0.2 3.6-0.4 5.4-0.6 1.1-0.1 2.3-0.2 3.5-0.3q3.1-0.3 6.2-0.6c1.2-0.2 2.5-0.2 3.8-0.4 2.1-0.2 4.2-0.4 6.2-0.6 1.4-0.1 2.8-0.2 4.3-0.3q3.6-0.3 7.2-0.6 1-0.1 2.1-0.2 2.5-0.1 5-0.3c0 0 0.1 0 0.4 0.1-1.1 0.3-1.9 0.5-2.8 0.7q-4 0.8-8 1.7-5.7 1.2-11.4 2.4-4.8 1-9.5 2.1-6.3 1.4-12.6 2.8c-2.7 0.6-5.3 1.2-7.9 1.8-4.2 1-8.4 1.9-12.6 2.9q-10.3 2.6-20.5 5.2-5.1 1.4-10.2 3.1c-3.3 1-6.5 2.3-9.3 4.4-1.5 1-2.8 2.2-3.2 4.1-0.3 1.5 0.3 2.6 1.1 3.6 1.5 2 3.5 3.2 5.6 4.4 4.5 2.4 9.2 4.2 14.1 5.6 5.3 1.6 10.6 3.1 16 4.5 5.1 1.2 10.2 2.3 15.4 3.4 3.2 0.7 6.5 1.4 9.8 2 3.6 0.7 7.3 1.3 11 1.9 3.5 0.6 7 1.3 10.5 1.9 2.5 0.4 5 0.7 7.4 1.1 2.2 0.4 4.4 0.8 6.5 1.1 0.7 0.1 1.4 0.2 2.1 0.3q0 0.1 0 0.2-0.3 0-0.7 0c-10.7 0-21.5 0-32.2 0-1.4 0-2.8-0.4-4.2-0.7q-3.8-0.6-7.5-1.4-3.7-0.7-7.4-1.4c-3.2-0.7-6.4-1.3-9.6-2q-4.2-1-8.4-2.1c-4.9-1.2-9.7-2.4-14.4-3.8-5-1.5-9.9-3.2-14.8-5.1-3.4-1.3-6.7-3-9.7-5.2-1.7-1.3-3.2-2.7-4-4.7-0.7-2-0.3-3.8 0.9-5.4 1.5-2 3.4-3.4 5.6-4.5 4.5-2.5 9.4-4 14.3-5.6 4.1-1.3 8.4-2.6 12.5-4-1.1 0.3-2.2 0.5-3.3 0.7-3.7 0.9-7.4 1.7-11 2.7-3.7 1-7.3 2-10.9 3.1-3.7 1.2-7.4 2.4-11 3.9-4 1.6-7.9 3.5-10.9 6.7-1 1.1-1.7 2.3-1.7 3.8 0 1.2 0.6 2.1 1.3 2.9 1.3 1.3 2.8 2.3 4.3 3.2 2.3 1.2 4.5 2.5 6.8 3.5 2.8 1.3 5.7 2.5 8.6 3.5q7.5 2.5 15.1 4.7c4.1 1.2 8.1 2.2 12.2 3.2 5.4 1.3 10.8 2.5 16.2 3.7q0.3 0 0.7 0.1 0 0.1 0 0.2z"/><path class="a" d="m56.4 8.1v26.2h8.2v-25.2c2.4 0.2 4.7 0.5 7.1 0.8v0.9q0 22.7 0 45.3c0 3.3 0.1 6.7 0.2 10 0 0.8-0.1 1.2-1.1 1.3-1.8 0.2-3.7 0.7-5.6 1-0.1 0-0.2 0-0.4 0q0-0.2 0-0.4c-0.1-3.4-0.2-6.9-0.2-10.3 0-4.2 0-8.5 0-12.8-2.8 0.2-5.5 0.3-8.1 0.5v24.7q-3.4 0.8-7 1.6c-0.4-21.5-0.2-42.9-0.2-64.4 1.2 0.1 2.4 0.2 3.5 0.3 1.2 0.2 2.3 0.3 3.6 0.5z"/><path class="a" d="m21 14.1v-10.1q11.2 1.3 22.4 2.6v9.4c-2.5-0.2-5-0.5-7.5-0.7v59.8q-3.5 1.2-7.2 2.5v-62.9c-2.6-0.2-5.1-0.4-7.7-0.6z"/><path class="a" d="m78.9 10.8q10 1.1 20 2.3v7.5c-4.2-0.4-8.5-0.7-12.8-1.1v15.2h10.1v8.7q-5.1 0.3-10.2 0.5v15.5q6.4-0.9 12.9-1.9v5.4c-6.7 1-13.2 2-20 3 0 0 0-55.1 0-55.1z"/><path class="a" d="m206 109.5c-2.2-0.1-4.1-0.3-6.1-0.5-0.2 0-0.3-0.2-0.4-0.4-0.1-0.1-0.1-0.3-0.1-0.4q0-21.8 0-43.7v-0.4q2.9-0.5 5.8-1 2.5-0.5 5.1-0.9c2.4-0.4 5.2 0.6 6.9 2.7 1.4 2 2.1 4.2 2.2 6.7 0 2.4 0.2 4.9 0.1 7.3-0.1 2.7-0.5 5.4-2.3 7.6-1.5 1.9-3.4 3.2-5.8 3.5-1.8 0.3-3.6 0.4-5.5 0.5v19zm0.1-25.6c1.1 0 2.3 0 3.3-0.2 0.8-0.1 1.6-0.5 2.3-1 1.3-0.9 1.4-2.4 1.4-3.9 0.1-2.1 0-4.2-0.1-6.3-0.1-1.6-1.7-3.1-3.2-3-1.3 0.2-2.5 0.4-3.7 0.6z"/><path class="a" d="m167 55.1c-2.5 0.2-4.9 0.5-7.3 0.7-0.4-2.1-0.7-4.1-1-6.2-0.1-0.5-0.2-0.8-0.8-0.8-2 0.2-4 0.2-6.1 0.4-0.3 0-0.7 0.1-0.8 0.6-0.4 2.1-0.9 4.1-1.3 6.1-0.2 0.7-0.5 1.2-1.3 1.3-1.9 0.2-3.7 0.4-5.6 0.6-0.1 0.1-0.3 0-0.6 0 0.4-1.5 0.7-2.9 1-4.4q1.2-5.2 2.3-10.4 1.1-4.8 2-9.5 0.9-4.5 1.8-9.1c0.4-1.7 0.7-3.3 1-5 0-0.2 0.3-0.4 0.4-0.4 1.9 0.2 3.8 0.5 5.7 0.7 1 0.2 2 0.2 3 0.4 0.3 0 0.6 0.3 0.7 0.5 0.8 4.3 1.7 8.5 2.5 12.8 0.8 4 1.7 8.1 2.5 12.1 0.6 3.1 1.2 6.1 1.8 9.2 0 0.1 0.1 0.2 0.1 0.4zm-11.9-26.9c-1 5.5-1.9 10.7-2.8 16.1 1.9-0.1 3.6-0.2 5.5-0.3-0.9-5.2-1.8-10.4-2.7-15.8z"/><path class="a" d="m194.7 108.1c-1.2-0.2-2.4-0.3-3.5-0.5q-1.2-0.2-2.3-0.3c-0.5 0-0.8-0.1-0.9-0.7-0.1-1.3-0.4-2.6-0.6-3.9-0.2-1.5-0.4-3-0.6-4.5-0.1-0.1-0.5-0.3-0.7-0.4-1.8 0-3.5-0.1-5.3-0.1-0.2 0-0.4-0.1-0.7-0.2-0.5 2.8-1 5.7-1.4 8.6q-3.3-0.5-6.5-1.1c2.3-12.6 4.7-25.1 7-37.6q3.7-0.6 7.5-1.2c1-0.1 1.1 0 1.2 0.9 0.4 2.4 0.8 4.7 1.2 7 0.4 2.3 0.8 4.6 1.2 6.9 0.4 2.4 0.8 4.7 1.2 7.1 0.3 2.1 0.6 4.1 1 6.2 0.3 2 0.7 4.1 1 6.1q0.5 2.7 0.9 5.4c0.1 0.7 0.2 1.5 0.3 2.3zm-8.9-16.3c-0.8-5.2-1.6-10.3-2.4-15.5q0 0.1-0.1 0.1-1.2 7.6-2.4 15.4z"/><path class="a" d="m193.2 31.8h-7.1c0-0.6 0.2-1.4 0-2-0.5-1.9-1.8-2.6-3.6-2.8-1 0-2-0.1-2.8 0.6-1.1 0.9-1.3 2.6-0.5 4 1 1.6 2.4 2.6 3.8 3.6 3.2 2.5 6.6 4.6 9.4 7.5 2.1 2.1 1.8 5 0 7.1-2 2.2-4.7 3.1-7.5 3.8-2.2 0.4-4.4 0.6-6.6 0.4-2.1-0.1-4.2-0.5-5.8-2.2-1.3-1.4-1.8-3.1-1.3-5 0-0.2 0.2-0.4 0.3-0.5q3-0.3 5.9-0.6c0.2 0 0.4 0 0.6 0 0 0.7-0.1 1.3 0 1.9 0.5 1.8 1.8 2.3 3.8 2.3 1.2 0 2.6-0.3 3.7-1 1.9-1.3 1.6-3.4 0.1-4.5-2.5-1.8-5.2-3.5-7.7-5.4-2-1.5-3.9-3.1-5.1-5.3-0.9-1.6-1.3-3.3-1-5.2 0.1-1.6 0.7-3.1 1.9-4.2 1.2-1.2 2.7-1.8 4.4-2 3-0.4 6 0 8.9 1.1 2.7 1.1 5 2.6 5.8 5.7 0.3 0.8 0.3 1.7 0.4 2.7z"/><path class="a" d="m126.3 54.3c4.1-0.4 8.2-0.8 12.4-1.2 0 0.7 0.1 1.4 0 2.1 0 0.9-0.1 1.7-0.1 2.6 0 0.5-0.1 0.6-0.6 0.7-2.2 0.2-4.4 0.5-6.6 0.8-1.6 0.1-3.3 0.3-5 0.4-1.5 0.2-3.1 0.5-4.7 0.7-0.8 0-1.6 0.1-2.6 0.2q0.2-22.7 0.4-45.2c2.4 0.2 4.7 0.5 7.1 0.8q-0.1 19-0.3 38.1z"/><path class="a" d="m157.5 71.2v26.2c3.9 0.6 7.6 1.2 11.4 1.7v5.2q-5.9-1.2-11.8-2.4-2.8-0.5-5.5-1.1c-0.4-0.1-0.5-0.3-0.5-0.7q0-2.4 0-4.9 0-10.9 0-21.8c0-0.6 0-1 0.8-1.1 1.9-0.2 3.7-0.7 5.6-1.1z"/><path class="a" d="m205.1 29.4c-2.6-0.2-5.1-0.5-7.6-0.7v-4.2q1.6 0.2 3.2 0.4 1.6 0.2 3.3 0.4 2.4 0.3 4.9 0.6c1.5 0.2 3 0.3 4.6 0.5q2.4 0.3 4.9 0.6 0 0 0.1 0c0.4 0.1 1 0 1.2 0.2 0.2 0.4 0.1 0.9 0.1 1.4q0 1 0 2c-2.5-0.2-5-0.4-7.5-0.6-0.1 7-0.2 14-0.2 21q-3.7 0.3-7.3 0.6c0.1-7.3 0.2-14.7 0.3-22.2z"/></svg>