<?xml version="1.0" encoding="UTF-8"?>
<svg id="Layer_1" xmlns="http://www.w3.org/2000/svg" version="1.1" viewBox="0 0 1200 564">
  <!-- Generator: Adobe Illustrator 29.1.0, SVG Export Plug-In . SVG Version: 2.1.0 Build 142)  -->
  <defs>
    <style>
      .st0 {
        fill: #fff;
      }
    </style>
  </defs>
  <path class="st0" d="M714.53,209.43l115.67,73.35-113.05,50.17-80.61-50.21c-22.69-14.13-50.9-16.1-75.33-5.26l-123.64,54.87c-46.44-17.89-72.47-27.92-118.91-45.81h0s309.26-137.24,309.26-137.24c3.49-1.55,5.92-4.08,7.27-7.57,1.35-3.5,1.24-6.99-.31-10.49-1.55-3.5-4.11-5.99-7.66-7.47-3.56-1.48-7.09-1.44-10.58.11l-238.61,105.89c-39.67-15.28-62.34-24.02-102.01-39.3h0S658.75,20.59,658.75,20.59c7.8-3.46,16.01-4.76,24.6-3.91,8.6.86,16.36,3.85,23.32,8.98,6.94,5.13,12.22,11.73,15.8,19.81l39.77,89.63c5.38,12.11,5.7,24.46.97,37.02-4.73,12.57-13.15,21.54-25.27,26.92l-23.42,10.39Z"/>
  <g>
    <g>
      <path class="st0" d="M118.4,527.29l-28.19-30.94h-41.67v-17.16h46.41c13.94,0,21.29-7.97,21.29-22.36s-7.97-21.45-21.29-21.45h-60.66v91.91H15v-111.36h79.96c25.43,0,40.44,15.78,40.44,40.59,0,18.38-8.58,31.4-22.98,36.92l33.55,33.85h-27.57Z"/>
      <path class="st0" d="M272.2,527.29l-16.7-28.03h-52.69l9.19-15.78h34.16l-24.82-41.67-50.55,85.48h-22.21l64.03-106.61c2.3-3.83,5.21-6.28,9.5-6.28s7.05,2.45,9.34,6.28l64.18,106.61h-23.44Z"/>
      <path class="st0" d="M343.59,527.29c-31.1,0-54.07-24.51-54.07-56.83s22.98-54.53,54.07-54.53h60.35v19.45h-60.35c-19.91,0-34.62,14.86-34.62,36s14.55,36.46,34.62,36.46h60.35v19.45h-60.35Z"/>
      <path class="st0" d="M419.72,527.29v-111.36h99.42v19.45h-80.11v72.46h80.27v19.45h-99.57ZM453.27,478.88v-16.39h61.73v16.39h-61.73Z"/>
      <path class="st0" d="M586.84,527.29c-31.1,0-54.07-24.51-54.07-56.83s22.98-54.53,54.07-54.53h60.35v19.45h-60.35c-19.91,0-34.62,14.86-34.62,36s14.55,36.46,34.62,36.46h60.35v19.45h-60.35Z"/>
      <path class="st0" d="M662.98,527.29v-111.36h19.45v91.91h74.91v19.45h-94.36Z"/>
      <path class="st0" d="M771.28,527.29v-111.36h99.42v19.45h-80.11v72.46h80.27v19.45h-99.57ZM804.83,478.88v-16.39h61.73v16.39h-61.73Z"/>
      <path class="st0" d="M1003.66,527.29l-16.7-28.03h-52.69l9.19-15.78h34.16l-24.82-41.67-50.55,85.48h-22.21l64.03-106.61c2.3-3.83,5.21-6.28,9.5-6.28s7.05,2.45,9.34,6.28l64.18,106.61h-23.44Z"/>
      <path class="st0" d="M1057.12,445.79v81.49h-18.53v-101.1c0-7.2,3.83-11.64,9.96-11.64,2.91,0,5.36,1.07,8.27,3.98l78.58,77.97v-81.49h18.53v102.02c0,7.35-3.98,11.64-9.65,11.64-3.22,0-6.13-1.38-8.88-4.14l-78.28-78.74Z"/>
    </g>
    <g>
      <path class="st0" d="M1173.08,417.01v-10.78h3.92c.82,0,1.42.1,1.81.3s.71.54.96,1c.25.47.38,1.01.38,1.63,0,.81-.21,1.47-.64,1.98-.42.5-1.04.83-1.85.96.33.2.58.4.75.6.35.41.65.87.92,1.38l1.54,2.93h-1.47l-1.18-2.24c-.46-.88-.8-1.47-1.03-1.77-.23-.3-.46-.51-.68-.61-.22-.11-.52-.16-.91-.16h-1.35v4.79h-1.17ZM1174.25,410.98h2.52c.55,0,.97-.07,1.25-.2s.51-.34.68-.63c.17-.28.25-.62.25-.99,0-.54-.16-.97-.48-1.28s-.79-.47-1.42-.47h-2.8v3.57Z"/>
      <path class="st0" d="M1176.44,422.18c-5.82,0-10.56-4.74-10.56-10.56s4.74-10.56,10.56-10.56,10.56,4.74,10.56,10.56-4.74,10.56-10.56,10.56ZM1176.44,402.31c-5.13,0-9.31,4.17-9.31,9.31s4.17,9.31,9.31,9.31,9.31-4.17,9.31-9.31-4.17-9.31-9.31-9.31Z"/>
    </g>
  </g>
</svg>