<svg version="1.2" xmlns="http://www.w3.org/2000/svg" viewBox="0 0 240 120" width="240" height="120"><style>.a{fill:#fff}</style><path class="a" d="m55 105.3c0.3-0.9 0.5-1.8 0.9-2.7 1.6-3.1 5-4.9 8.8-4.6 0.9 0.1 1.8 0.3 2.7 0.4q0.1-0.3 0.1-0.6c0.9 0 1.7 0 2.6 0 0 1.8 0 3.6 0 5.5q-1.3 0-2.5 0c-0.1 0-0.3-0.1-0.4-0.2-1.5-1.3-3.7-1.6-5.3-0.7-1.6 0.9-2.4 2.9-2.1 4.9 0.5 2.7 2.6 4.3 5.2 4 1-0.1 1.1-0.2 1.1-1.2 0-0.5 0-1 0-1.5-1 0-1.9 0-2.8 0 0-1.1 0-2 0-3.1 2.4 0 4.7 0 7.1 0q0 0.3 0 0.5 0 3.3 0 6.6c0 0.4-0.1 0.6-0.5 0.8q-1.8 1.1-3.9 1.5-0.2 0.1-0.5 0.2-1.6 0-3.3 0-0.5-0.2-1-0.3c-3.2-0.9-5.2-2.8-6-6.1q-0.1-0.3-0.2-0.7 0-1.3 0-2.7z"/><path class="a" d="m109.3 115.1q-0.2-0.1-0.4-0.2c-2.6-0.5-4.4-2-5.4-4.5-1.1-2.5-1.1-5.1-0.2-7.7 1.3-3.6 4.8-5.5 8.7-4.9 4 0.6 6.6 3.4 6.9 7.4 0.2 1.7 0 3.4-0.6 5-1.1 2.6-2.9 4.2-5.7 4.7q-0.1 0.1-0.3 0.2-1.5 0-3 0zm5.2-8.8q0 0 0.1 0c-0.3-1-0.5-2-0.9-2.9-0.5-1.1-1.6-1.8-2.9-1.8-1.3 0-2.3 0.6-2.9 1.8-1 2-1.1 4.1 0.1 6.1 1.3 2.3 4.2 2.3 5.6 0.1 0.6-1 0.8-2.1 0.9-3.3z"/><path class="a" d="m120.7 57.7q2.6-2.7 5.2-5.4 4.6-4.7 9.1-9.3c0.3-0.2 0.7-0.5 1-0.5q9.6 0 19.2 0c0.1 0 0.2 0 0.5 0q0 0.4 0 0.8 0 18.1 0 36.2c0 0.4-0.2 0.7-0.6 1q-10.5 7-23 8.8c-5.7 0.8-11.5 0.9-17.3-0.1-9-1.4-17-5-23.6-11.4-5.6-5.6-9.1-12.3-10.6-20-1.7-8.5-1.3-17 1.8-25.2 4.6-12.4 13.4-20.6 25.8-24.9 6.3-2.2 12.9-2.8 19.5-2.4 4.5 0.3 8.9 1.1 13.1 2.7 0.1 0 0.2 0 0.4 0.1 0-1.3 0-2.6 0-3.9 4.4 0 8.7 0 13 0q0 13.6 0 27.4c-2.7 0-5.3 0-8.2 0 2.3-2.3 4.4-4.5 6.5-6.7q0 0 0-0.1-4.4 1.6-8.8 3.1 0 0 0-0.1c1.9-2.4 3.8-4.8 5.8-7.4-2.1 0.7-4.1 1.4-6.1 2q-5.2 1.7-10.4 3.4c-0.4 0.1-0.8 0.1-1.1 0-6.2-1.9-12.2-1.9-17.9 1.3-5.7 3.1-9 8-10.3 14.2-1.6 7.6-0.2 14.7 4 21.2 0.3 0.3 0.2 0.6 0.1 1q-2.2 5.5-4.3 11.1c-0.1 0.2-0.2 0.4-0.3 0.8q4.4-4.5 8.5-8.6c1.7 0.9 3.2 1.9 4.8 2.6 5.8 2.4 11.6 2.8 17.4 0.4 0.3-0.2 0.6-0.2 0.6-0.7q-0.1-5.5 0-11c0 0-0.1-0.1-0.1-0.2q-6.8 0-13.6 0-0.1-0.1-0.1-0.2z"/><path class="a" d="m117.2 43.9c-2.1 0.8-3.9 1.4-5.8 2.2 0.1-0.2 0.1-0.4 0.2-0.5q4.5-6.9 9.1-13.7c0.1-0.3 0.4-0.5 0.7-0.6q11.7-3.9 23.3-7.8c0.2 0 0.3-0.1 0.7-0.2-2.2 2.7-4.3 5.2-6.3 7.7q0 0 0 0.1 3.9-1.3 7.7-2.7 0 0.1 0.1 0.1-19.9 20.5-39.8 41 0 0-0.1-0.1c3.4-8.4 6.7-16.9 10.2-25.5zm-3.7 12.8q0 0.1 0.1 0.1 11.2-11.5 22.5-23.1-0.1-0.1-0.1-0.1c-2 0.7-4 1.3-6.2 2.1 2.2-2.7 4.3-5.3 6.5-7.9-0.2 0-0.2 0-0.3 0q-6.9 2.3-13.9 4.6c-0.2 0.1-0.5 0.3-0.6 0.6q-2.2 3.3-4.4 6.7c-0.1 0-0.1 0.1-0.2 0.3 1.3-0.4 2.4-0.9 3.7-1.4-2.4 6.2-4.8 12.2-7.1 18.1z"/><path class="a" d="m126.6 111.7c0 1.1 0 2 0 3-2.3 0-4.5 0-6.8 0 0-1 0-1.9 0-3q0.5 0 1.2 0c0-3.6 0-7.1 0-10.7q-0.6 0-1.2 0c0-1 0-1.9 0-2.9 0 0 0 0 0.1 0 2.8 0 5.6-0.1 8.4 0.1 1 0.1 2 0.5 2.9 1 1.6 0.8 1.9 2.4 1.7 4-0.1 1.6-1 2.7-2.6 3.2q-0.1 0.1-0.3 0.2 0.1 0 0.1 0.1c1.9 0.6 2.5 1.3 2.5 3.3q0 0.8 0 1.7c0.4 0 0.8 0.1 1.2 0.1q0 0.7 0 1.4 0 0.7 0 1.5c-1.8 0-3.6 0-5.4 0q0-1.7 0-3.3 0-0.4 0-0.7c-0.1-1.6-0.7-2.1-2.2-2.1-0.3 0-0.6 0-0.9 0q0 0.8 0 1.6 0 0.7 0 1.5c0.4 0 0.8 0 1.3 0zm-1.3-10.7q0 2.3 0 4.5 3.2 0.3 3.3-2.2c0-1.8-0.8-2.4-3.3-2.3z"/><path class="a" d="m152.7 114.8c0-1.1 0-2 0-3 0.4 0 0.8-0.1 1.2-0.1 0-3.5 0-7.1 0-10.7q-0.6 0-1.2 0c0-1 0-1.9 0-2.9 0 0 0.1 0 0.1 0 3 0 5.9-0.2 8.8 0.2 3.6 0.5 5.6 3 5.9 6.6 0.2 1.8 0.1 3.6-0.6 5.3-1 2.4-2.9 3.9-5.4 4.2-2.9 0.4-5.8 0.3-8.8 0.4zm5.8-13.7q0 5.3 0 10.5c2.2 0.2 3.6-0.8 4.2-2.8q0.7-2.3 0.2-4.6c-0.5-2.3-2-3.3-4.4-3.1z"/><path class="a" d="m139.3 100.6c-0.4 0-0.7 0-1.1 0q0-1.3 0-2.5c2.7 0 5.3 0 8 0q0.8 2.5 1.6 5.1 1.2 3.7 2.4 7.4c0.2 0.7 0.3 1.4 1.4 1.1 0 1.1 0 2 0 3-2.2 0-4.4 0-6.6 0 0-1 0-1.9 0-2.9q0.4 0 1-0.1c-0.3-1-0.5-1.9-0.8-2.8 0-0.1-0.2-0.2-0.4-0.2-1.3 0-2.6 0-4 0-0.2 1-0.5 1.9-0.7 3 0.3 0 0.6 0.1 1 0.1 0 1 0 1.9 0 2.9q-3.1 0-6.3 0 0-1.5 0-2.8c0.1-0.1 0.1-0.1 0.2-0.1 0.7 0.1 1-0.3 1.2-1 1-3.2 2-6.3 2.9-9.5q0.1-0.3 0.2-0.7zm3.7 0.5q-0.1 0-0.1 0c-0.5 1.5-0.9 3-1.3 4.5 0.9 0 1.8 0 2.7 0q-0.7-2.3-1.3-4.5z"/><path class="a" d="m88.5 111.8c0 1 0 1.9 0 2.9q-3.4 0-6.7 0 0-1.5 0-2.9c0.3 0 0.6-0.1 1-0.1-0.2-1-0.5-2-0.8-3q-2 0-4 0c-0.2 0-0.4 0.2-0.4 0.4-0.3 0.8-0.5 1.7-0.7 2.6q0.5 0 1 0.1c0 1 0 1.9 0 2.9-2.1 0-4.1 0-6.2 0q0-1.4 0-2.9c0 0 0 0 0.1 0 0.8 0.1 1.1-0.4 1.3-1.1 0.9-3.1 1.9-6.2 2.8-9.3 0.1-0.2 0.2-0.5 0.2-0.8-0.4 0-0.7 0-1.1 0 0-0.9 0-1.7 0-2.5 0.1 0 0.2-0.1 0.3-0.1 2.4 0 4.8 0 7.2 0 0.5 0 0.6 0.3 0.7 0.6q1.9 5.8 3.7 11.7c0.3 0.8 0.2 1.8 1.6 1.5zm-10.1-6.2c0.9 0 1.8 0 2.8 0-0.5-1.6-1-3-1.4-4.5q-0.1 0-0.1 0-0.7 2.2-1.3 4.5z"/><path class="a" d="m169.6 101c-0.4 0-0.8 0-1.2 0 0-1 0-1.9 0-2.9q6.2 0 12.4 0 0 2.6 0 5.3c-0.9 0-1.8 0-2.7 0q0-1.1 0-2.4c-1.4 0-2.6 0-3.9 0 0 1.4 0 2.7 0 4q1.4 0 2.9 0c0 1.1 0 2.1 0 3.1q-1.4 0-2.9 0c0 1.3 0 2.4 0 3.6 1.3 0 2.5 0 3.8 0 0-0.8 0-1.5 0-2.3 1 0 1.8 0 2.8 0q0 2.6 0 5.3-6.2 0-12.4 0c0-1 0-1.9 0-2.9q0.5 0 1.2-0.1c0-3.5 0-7.1 0-10.7z"/><path class="a" d="m102 103.8c-0.9 0-1.7 0-2.6 0 0-0.8 0-1.5 0-2.4-0.8 0-1.6 0-2.3 0 0 3.4 0 6.9 0 10.3 0.5 0 1 0 1.6 0 0 1 0 2 0 3q-3.9 0-7.9 0c0-1 0-1.9 0-2.9q0.8 0 1.6-0.1 0-5.1 0-10.3c-0.8 0-1.5 0-2.3 0q0 1.2 0 2.4c-0.9 0-1.7 0-2.6 0q0-2.8 0-5.7 7.2 0 14.5 0c0 1.9 0 3.8 0 5.7z"/><path class="a" d="m156.8 7.2c-0.9 0-1.6-0.7-1.6-1.6 0-0.9 0.7-1.6 1.6-1.6 1 0 1.6 0.7 1.6 1.6 0 0.9-0.7 1.6-1.6 1.6zm0-3c-0.7 0-1.3 0.6-1.3 1.4 0 0.8 0.6 1.4 1.3 1.4 0.8 0 1.4-0.6 1.4-1.4 0-0.7-0.6-1.3-1.4-1.4z"/><path class="a" d="m156.3 4.9q0.1-0.1 0.4-0.1 0.4 0 0.5 0.2 0.2 0.1 0.2 0.3c0 0.2-0.2 0.3-0.3 0.4q0.2 0 0.2 0.3c0.1 0.1 0.1 0.3 0.1 0.4h-0.3q-0.1-0.1-0.1-0.4c-0.1-0.2-0.1-0.2-0.3-0.2h-0.1v0.6h-0.3c0 0 0-1.5 0-1.5zm0.3 0.6h0.1q0.3 0 0.3-0.2 0-0.2-0.2-0.2-0.2 0-0.2 0c0 0 0 0.4 0 0.4z"/><path class="a" d="m183.4 100.4c-0.6 0-1.1-0.5-1.1-1.2 0-0.6 0.5-1.1 1.1-1.1 0.7 0 1.1 0.5 1.1 1.1 0 0.7-0.5 1.2-1.1 1.2zm0-2.1c-0.5 0-0.9 0.4-0.9 0.9 0 0.6 0.4 1 0.9 1 0.5 0 0.9-0.4 1-0.9 0-0.5-0.5-1-1-1z"/><path class="a" d="m183 98.7q0.1 0 0.3 0 0.3 0 0.4 0.1 0.1 0.1 0.1 0.2c0 0.2-0.1 0.3-0.2 0.3q0.1 0 0.1 0.2c0.1 0.1 0.1 0.3 0.1 0.3h-0.2q0-0.1-0.1-0.3c0-0.1-0.1-0.1-0.2-0.1v0.4h-0.3c0 0 0-1.1 0-1.1zm0.3 0.5h0.1q0.1 0 0.1-0.2 0-0.1-0.1-0.1-0.1 0-0.1 0z"/></svg>