<?xml version="1.0" encoding="UTF-8"?>
<svg id="Layer_1" xmlns="http://www.w3.org/2000/svg" version="1.1" viewBox="0 0 710.13 587.74">
  <!-- Generator: Adobe Illustrator 29.1.0, SVG Export Plug-In . SVG Version: 2.1.0 Build 142)  -->
  <defs>
    <style>
      .st0 {
        fill: #fff;
      }
    </style>
  </defs>
  <g>
    <g>
      <path class="st0" d="M640.7,55.01v-2.63h14.62v2.63h-5.94v24.11h-2.72v-24.11h-5.96Z"/>
      <path class="st0" d="M657.96,79.12l3.85-26.73h.45l10.86,21.95,10.75-21.95h.45l3.84,26.73h-2.67l-2.58-19.14-9.45,19.14h-.68l-9.6-19.24-2.63,19.24h-2.6Z"/>
    </g>
    <g>
      <path class="st0" d="M189.77,178.88c0-.86,0-1.71,0-2.56,0-30.96-6.19-54.5-18.62-70.69-12.45-16.13-27.9-24.17-46.32-24.17-16.3,0-31.7,5.5-46.23,16.49-14.53,10.99-26.21,28.38-35.18,52.14-9.97,26.74-14.9,57.52-14.9,92.26,0,20.76,2.78,37.55,8.42,50.44,5.6,12.89,13.11,22.6,22.41,29.08,9.34,6.45,19.93,9.7,31.79,9.7,16.65,0,32.25-5.42,46.84-16.27,14.52-10.84,26.82-28.77,36.78-53.75,2.59-6.45,4.86-13.12,6.73-20.01h-44.16c-5.99,19.37-12.6,32.43-19.8,39.17-7.42,7.03-14.64,10.55-21.69,10.55-7.78,0-13.86-3.37-18.25-10.09-4.46-6.76-6.71-19.64-6.71-38.63,0-7.32.7-14.5,1.15-21.69,1.09-17.2,7.72-41.95,7.72-41.95.24-.93.43-1.9.72-2.83,6.36-21.31,13.65-36.07,21.88-44.24,5.61-5.5,11.67-8.28,18.27-8.28,7.88,0,14.29,3.71,19.26,11.11,4.97,7.37,7.42,19.72,7.42,36.98,0,2.48-.19,4.83-.21,7.26h42.65Z"/>
      <path class="st0" d="M333.93,131.81c5.61-5.5,11.68-8.28,18.27-8.28,7.89,0,14.29,3.71,19.26,11.11,4.97,7.37,7.42,19.72,7.42,36.98,0,2.48-.19,4.83-.21,7.26h-67.35c.24-.93.43-1.9.72-2.83,6.36-21.31,13.65-36.07,21.88-44.24ZM417.64,221.02c2.46-14.09,3.7-28.96,3.7-44.7,0-30.96-6.2-54.5-18.63-70.69-12.45-16.13-27.89-24.17-46.31-24.17-16.3,0-31.69,5.5-46.23,16.49-14.53,10.99-26.21,28.38-35.18,52.14-9.97,26.74-14.91,57.52-14.91,92.26,0,20.76,2.78,37.55,8.42,50.44,5.6,12.89,13.11,22.6,22.42,29.08,9.34,6.45,19.93,9.7,31.79,9.7,16.65,0,32.25-5.42,46.84-16.27,14.52-10.84,26.82-28.77,36.79-53.75,2.58-6.45,4.86-13.12,6.73-20.01h-44.16c-5.98,19.37-12.6,32.43-19.8,39.17-7.42,7.03-14.64,10.55-21.69,10.55-7.77,0-13.86-3.37-18.24-10.09-4.46-6.76-6.7-19.64-6.7-38.63,0-7.32.48-14.52,1.15-21.69h70.5l43.54.19Z"/>
      <path class="st0" d="M432.84,30.42h45.52v296.51h-45.52V30.42Z"/>
      <path class="st0" d="M201.35,86.09h45.52v240.85h-45.52V86.09Z"/>
      <rect class="st0" x="201.35" y="30.42" width="45.52" height="43.93"/>
      <path class="st0" d="M566.05,131.81c5.61-5.5,11.67-8.28,18.27-8.28,7.88,0,14.29,3.71,19.27,11.11,4.97,7.37,7.42,19.72,7.42,36.98,0,2.48-.19,4.83-.21,7.26h-67.35c.24-.93.43-1.9.72-2.83,6.36-21.31,13.65-36.07,21.88-44.24ZM649.77,221.02c2.46-14.09,3.69-28.96,3.69-44.7,0-30.96-6.19-54.5-18.62-70.69-12.45-16.13-27.89-24.17-46.32-24.17-16.29,0-31.69,5.5-46.22,16.49-14.53,10.99-26.21,28.38-35.19,52.14-9.97,26.74-14.91,57.52-14.91,92.26,0,20.76,2.78,37.55,8.42,50.44,5.6,12.89,13.11,22.6,22.42,29.08,9.34,6.45,19.92,9.7,31.78,9.7,16.66,0,32.26-5.42,46.84-16.27,14.52-10.84,26.81-28.77,36.78-53.75,2.59-6.45,4.86-13.12,6.73-20.01h-44.16c-5.99,19.37-12.61,32.43-19.8,39.17-7.43,7.03-14.64,10.55-21.7,10.55-7.77,0-13.86-3.37-18.24-10.09-4.46-6.76-6.71-19.64-6.71-38.63,0-7.32.49-14.52,1.16-21.69h70.5l43.54.19Z"/>
    </g>
  </g>
  <g>
    <g>
      <path class="st0" d="M79.97,501.67v-84.73c0-1.16.38-2.12,1.13-2.88.75-.75,1.69-1.13,2.81-1.13h12.48c1.12,0,2.06.38,2.81,1.13.75.75,1.13,1.71,1.13,2.88v1.94c6.81-4.83,14.72-7.24,23.74-7.24,9.01,0,16.54,3.18,22.57,9.54,6.04,6.36,9.06,15.46,9.06,27.3,0,11.84-3.13,20.9-9.38,27.2-6.25,6.3-14.68,9.44-25.29,9.44-5.48,0-11.71-1.1-18.69-3.3v19.86c0,1.16-.38,2.12-1.13,2.88-.76.75-1.69,1.13-2.81,1.13h-14.49c-1.12,0-2.06-.38-2.81-1.13-.76-.75-1.13-1.71-1.13-2.88ZM102.35,466.87c5.56,1.77,10.24,2.65,14.04,2.65,5.91,0,10.1-1.68,12.58-5.05,2.48-3.36,3.72-8.73,3.72-16.11s-1.18-12.73-3.52-16.07c-2.35-3.34-5.86-5.01-10.54-5.01-4.68,0-10.1,1.94-16.27,5.82v33.76Z"/>
      <path class="st0" d="M162.65,479.87v-62.94c0-1.16.38-2.12,1.13-2.88.75-.75,1.69-1.13,2.81-1.13h14.49c1.12,0,2.06.38,2.81,1.13.75.75,1.13,1.71,1.13,2.88v4.08c7.42-6.25,15.32-9.38,23.71-9.38,8.39,0,15.21,2.56,20.47,7.66,5.26,5.11,7.89,12.93,7.89,23.45v37.13c0,1.12-.38,2.06-1.13,2.81s-1.71,1.13-2.88,1.13h-14.42c-1.12,0-2.06-.38-2.81-1.13-.75-.75-1.13-1.69-1.13-2.81v-37.13c0-10.31-4.12-15.46-12.35-15.46-5.39,0-11.17,3.08-17.34,9.25v43.34c0,1.12-.38,2.06-1.13,2.81-.76.76-1.69,1.13-2.81,1.13h-14.49c-1.12,0-2.06-.38-2.81-1.13-.76-.75-1.13-1.69-1.13-2.81Z"/>
      <path class="st0" d="M253.93,475.67c-6.64-6.3-9.96-15.36-9.96-27.2,0-11.84,3.34-20.93,10.03-27.3,6.68-6.36,15.95-9.54,27.81-9.54,11.86,0,21.11,3.09,27.75,9.28,6.64,6.19,9.96,15.06,9.96,26.62v3.69c0,1.16-.38,2.12-1.13,2.88-.76.75-1.71,1.13-2.88,1.13h-48.71c.43,5.3,1.95,9.16,4.56,11.58,2.61,2.42,6.78,3.62,12.52,3.62,5.73,0,9.66-1.29,11.77-3.88,2.11-2.59,4.72-3.9,7.83-3.95h9.64c1.16,0,2.12.38,2.88,1.13.75.76,1.13,1.71,1.13,2.88,0,12.38-11.8,18.54-35.38,18.5-11.9,0-21.17-3.15-27.81-9.44ZM266.67,441.58h30.08c-.43-10.18-5.42-15.27-14.97-15.27-9.55,0-14.58,5.09-15.1,15.27Z"/>
      <path class="st0" d="M326.38,454v-37.06c0-1.16.38-2.12,1.13-2.88.75-.75,1.69-1.13,2.81-1.13h14.49c1.12,0,2.06.38,2.81,1.13.75.75,1.13,1.71,1.13,2.88v37.06c0,10.35,4.1,15.52,12.29,15.52,5.39,0,11.19-3.1,17.4-9.31v-43.27c0-1.16.38-2.12,1.13-2.88.75-.75,1.69-1.13,2.81-1.13h14.42c1.16,0,2.12.38,2.88,1.13.75.75,1.13,1.71,1.13,2.88v62.94c0,1.12-.38,2.06-1.13,2.81-.76.76-1.71,1.13-2.88,1.13h-14.42c-1.12,0-2.06-.38-2.81-1.13-.75-.75-1.13-1.69-1.13-2.81v-4.14c-7.42,6.25-15.32,9.38-23.71,9.38-8.39,0-15.21-2.55-20.47-7.66-5.26-5.11-7.89-12.93-7.89-23.45Z"/>
      <path class="st0" d="M411.71,479.87v-62.94c0-1.16.38-2.12,1.13-2.88.75-.75,1.69-1.13,2.81-1.13h14.49c1.16,0,2.11.38,2.85,1.13.73.75,1.1,1.71,1.1,2.88v4.08c3.1-3.02,6.16-5.34,9.15-6.95,3-1.62,6.61-2.43,10.83-2.43,10.05,0,17.66,4.14,22.83,12.42,8.02-8.32,16.25-12.47,24.68-12.45,8.43.02,15.09,2.57,19.99,7.63,4.89,5.07,7.34,12.9,7.34,23.51v37.13c0,1.16-.37,2.11-1.1,2.85-.73.73-1.68,1.1-2.85,1.1h-14.42c-1.16,0-2.12-.38-2.88-1.13-.75-.75-1.13-1.69-1.13-2.81v-37.13c0-10.35-3.75-15.5-11.25-15.46-4.57,0-9.29,3.3-14.17,9.9.26,1.86.39,3.71.39,5.56v37.13c0,1.16-.38,2.11-1.13,2.85-.76.73-1.69,1.1-2.81,1.1h-14.42c-1.16,0-2.12-.38-2.88-1.13-.76-.75-1.13-1.69-1.13-2.81v-37.13c0-10.35-3.75-15.5-11.25-15.46-4.79,0-9.38,3.08-13.78,9.25v43.34c0,1.16-.38,2.11-1.13,2.85-.76.73-1.69,1.1-2.81,1.1h-14.49c-1.16,0-2.11-.37-2.85-1.1-.73-.73-1.1-1.68-1.1-2.85Z"/>
      <path class="st0" d="M544.36,479.16c-5.71-3.97-8.57-9.57-8.57-16.82,0-7.24,2.86-12.81,8.57-16.69,5.71-3.88,13.08-5.82,22.09-5.82h21.41c0-5.05-1.06-8.56-3.17-10.54-2.11-1.98-5.81-2.98-11.09-2.98-5.28,0-8.99,1.3-11.12,3.91-2.13,2.61-4.75,3.91-7.86,3.91h-9.64c-1.16,0-2.12-.38-2.88-1.13-.75-.75-1.13-1.69-1.13-2.81,0-12.38,11.75-18.56,35.25-18.56,10.26,0,18.5,2.3,24.71,6.89,6.21,4.59,9.31,11.7,9.31,21.31v40.04c0,1.16-.37,2.11-1.1,2.85s-1.68,1.1-2.85,1.1h-12.48c-1.16,0-2.11-.38-2.85-1.13-.73-.75-1.1-1.69-1.1-2.81v-2.01c-6.81,4.87-14.67,7.3-23.58,7.28-8.91-.02-16.21-2.02-21.93-5.98ZM560.85,456.72c-1.75,1.47-2.62,3.36-2.62,5.69,0,2.33.91,4.25,2.72,5.76,1.81,1.51,4.38,2.26,7.7,2.26,6.64,0,13.04-1.94,19.21-5.82v-10.09s-19.86,0-19.86,0c-3.02,0-5.4.73-7.15,2.2Z"/>
    </g>
    <path class="st0" d="M223.73,506.15h-47.7c-4.97,0-9-4.03-9-9s4.03-9,9-9h47.7c4.97,0,9,4.03,9,9s-4.03,9-9,9Z"/>
  </g>
  <rect class="st0" x="249.82" y="382.19" width="208.59" height="1"/>
</svg>