<svg version="1.2" xmlns="http://www.w3.org/2000/svg" viewBox="0 0 240 120" width="240" height="120"><style>.a{fill:#fff}</style><path class="a" d="m232.5 88.8l-10.8-59.2c-0.2-1-1.1-1.7-2.1-1.7h-14.5c-2.5 0-2.8 0.1-3.6 1.5l-0.5 0.9-26.6 46.4-10.6-16.6 22.6-27.7c1-1.3 1.4-2.2 1.4-2.8 0-1.3-0.7-1.7-3.5-1.7h-11.9c-1.8 0-1.9 0.1-3.4 1.9l-21 25.6 4.4-23.8c0.2-1.3 0.2-1.3 0.2-1.7 0.1-1.6-0.6-2-3.4-2h-9.6c-3.1 0-3.4 0.1-3.9 3.1l-3.9 21.8c-1.4-15.7-13.3-26-31.2-26-13.6 0-24.8 5.8-31.5 15.2q0.6 0.4 1.3 0.8 0.3 0.2 0.4 0.2c0.3 0.2 1.7 1 2.5 1.4 1.5 0.8 3.4 1.6 5.2 2.3l0.1 0.1c2 0.7 3.8 1.4 5.3 2.2l0.2 0.1q0.1 0 0.1 0c3.4-4.1 8.8-6.6 14.9-6.6 8.6 0 14.6 5 15.7 12.8 1.4 0 3.1 0.1 4.8 0.2h0.2c1.9 0 4 0 5.7 0 0.9-0.1 2.5-0.2 2.8-0.3q0 0 0.1 0 0.1 0 0.4-0.1 4-0.4 6.2-1.3c1.1-0.4 2.8-1.3 3.6-1.7q0.2-0.1 0.4-0.2h0.1q0.1-0.1 0.2-0.1 0.7-0.3 1.4-0.2c0.9 0.2 1.6 0.9 1.9 1.4 0.7 1.3 0.5 2.8-0.6 3.6-0.1 0-3 1.9-5 2.7-2.2 0.8-5 1.3-5.9 1.5-0.5 0.1-2.1 0.3-3.7 0.5q-0.4 0.1-0.5 0.1c-0.8 0.1-1.8 0.3-3.1 0.5-1.4 0.2-3.2 0.4-5.6 0.8l-0.8 0.1c-1.2 0.2-2.2 0.4-3.1 0.6-2.1 8-9 13.3-18.1 13.3-10.3 0-16.8-6.8-16.2-16.9q0.1-1.8 0.5-3.5c-0.7-0.5-1.6-1.1-2.8-1.9l-0.7-0.4c-2-1.3-3.6-2.3-4.8-3.1-1.1-0.6-1.9-1.2-2.6-1.6q-0.1-0.1-0.5-0.3c-1.3-0.9-2.7-1.7-3.1-2-0.7-0.5-3.1-2.1-4.8-3.8-1.5-1.5-3.4-4.4-3.4-4.4-0.7-1.2-0.3-2.6 0.9-3.5 0.5-0.4 1.3-0.7 2.2-0.5q0.8 0.2 1.3 0.7 0.1 0.1 0.2 0.2 0.2 0.2 0.3 0.4c0.6 0.7 1.8 2.1 2.6 3q0.9 0.8 2.2 1.8l1.7-9.3 0.2-1.7c0.2-1.6-0.6-2-3.4-2h-9.9c-3.2 0-3.4 0.1-4 3.1l-3.5 20h-22.9l3.5-19.4c0.3-1.3 0.3-1.3 0.3-1.7 0.1-1.6-0.6-2-3.4-2h-9.9c-3.1 0-3.3 0.1-3.9 3.1l-10.3 56.6-0.2 1.7c-0.1 1.6 0.7 1.9 3.3 1.9h9.9c3.2 0 3.4 0 3.9-3.1l4.3-23.1h22.8l-4.1 22.6c-0.2 0.9-0.2 1.3-0.2 1.7-0.1 1.6 0.9 1.9 3.7 1.9h9.6c3.1 0 3.3 0 3.9-3.1l4.1-22.3c1.4 16 13.9 26.5 32.5 26.5 11.9 0 21.7-4.4 28.2-12.7 1.8-2.3 3.4-4.9 4.6-7.7l-2.8 15.7-0.2 1.7c-0.2 1.6 0.5 1.9 3.2 1.9h9.6c3.2 0 3.4 0 4-3.1l4.6-25.2c0.9 2.2 1.8 3.9 4.3 8.2l11.1 18.2c1.1 1.8 1.3 1.9 3.1 1.9h16.9c2.6 0 2.8 0.1 3.7-1.5l0.5-0.9 4.8-9h22.3l1.4 9.9c0.1 0.9 0.9 1.5 1.8 1.5h13.9c1.2 0 2.2-1.1 2-2.4zm-91.7-34c-0.2 0.2-2.9 1.9-4.5 2.5-1.7 0.6-4 1.1-5.5 1.4-0.8 0.1-4.2 0.6-4.2 0.6-0.9 0.2-1.8 0.3-3 0.5-1.5 0.2-3.4 0.4-5.8 0.8l-0.7 0.1c-5.1 0.9-6.2 1.1-10.2 2.6-2 0.7-3.1 1.3-3.9 1.7l-0.2 0.1q-0.4 0.2-1.2 0.7c-1.1 0.6-2.8 1.6-4.3 2.3-0.6 0.3-1 0.4-1.8 0.2-0.9-0.2-1.2-0.4-1.6-1-1.1-1.2-2.3-2.8-2.9-3.8q-0.6-0.8-0.9-1.1l-0.1-0.2c-0.6-0.7-1.4-1.6-2.9-3.1-3.1-3-4-3.6-8.3-6.4l-0.6-0.5c-2-1.3-3.6-2.3-4.9-3.1-1-0.6-1.8-1.1-2.6-1.6 0 0-2.9-1.8-3.5-2.2-1.3-0.9-3.2-2.3-4.5-3.6-1.2-1.2-3-3.8-3.1-4-0.1-0.2 0.1-0.6 0.3-0.7 0.1-0.1 0.4-0.2 0.6-0.2q0.1 0.1 0.2 0.1 0.1 0.1 0.4 0.5c0.6 0.7 1.8 2.2 2.7 3.2 1.8 1.8 4.5 3.4 5.5 4q0.2 0.1 0.3 0.2c0.5 0.3 2 1.1 2.7 1.5 1.6 0.8 3.6 1.7 5.4 2.4 2 0.7 3.8 1.4 5.2 2.2l0.3 0.1c2 1 5.3 3.3 6.1 4 1.3 1 5 3.1 6.1 3.7 0.3 0.1 1 0.5 2 0.7 1 0.2 1.7 0.2 2.1 0.1 1.3-0.1 5.5-0.5 7.1-0.9 0.9-0.2 4.9-1.1 7.2-1.1h0.3c1.6-0.1 3.5 0 5.6 0.1 1.9 0.1 4.1 0.1 6 0 0.7-0.1 2.5-0.2 3-0.3q0.1 0 0.4-0.1c1.2-0.1 4.3-0.5 6.6-1.4 1.2-0.5 3-1.4 3.8-1.8q0.5-0.2 0.6-0.3 0.1 0 0.2 0c0.2 0.1 0.4 0.3 0.4 0.4 0.2 0.2 0.3 0.6 0.1 0.7zm57.3 12.3l10.1-20.2 2.8 20.2z"/><path class="a" d="m236.1 87.3c-1.1 0-2 0.9-2 2 0 1 0.9 1.9 2 1.9 1.1 0 2-0.9 2-1.9 0-1.1-0.9-2-2-2zm0 3.6c-1 0-1.8-0.7-1.8-1.6 0-1 0.8-1.7 1.8-1.7 0.9 0 1.7 0.7 1.7 1.7 0 0.9-0.8 1.6-1.7 1.6zm0.6-0.6q0.1 0 0.1 0.1 0 0-0.2 0h-0.1c0 0 0 0-0.1 0l-0.5-0.9h-0.1l-0.1 0.8c-0.1 0.1-0.1 0.1-0.2 0.1h-0.1q-0.1 0-0.1 0 0-0.1 0-0.1l0.3-2.1c0-0.1 0-0.1 0.1-0.1h0.3c0.3 0 0.5 0 0.6 0.1q0.2 0.2 0.2 0.5 0 0.4-0.2 0.5c-0.1 0.1-0.2 0.2-0.4 0.2zm-0.9-1.1h0.2c0.2 0 0.3 0 0.4-0.1q0.1-0.1 0.1-0.3 0-0.2-0.2-0.3-0.1-0.1-0.3-0.1h-0.1z"/></svg>