<svg version="1.2" xmlns="http://www.w3.org/2000/svg" viewBox="0 0 240 120" width="240" height="120"><style>.a{fill:#fff}</style><path fill-rule="evenodd" class="a" d="m62.4 38.8v2.5h-43.2v-2.5z"/><path class="a" d="m63.7 23.6c0-1.5-1.1-2.6-2.5-2.6-1.5 0-2.6 1.1-2.6 2.6 0 0.9 0.5 1.7 1.3 2.2v4.2c0 2.1-1.7 3.8-3.8 3.8-2.1 0-3.9-1.7-3.9-3.8v-4.2c0.8-0.5 1.3-1.3 1.3-2.2 0-1.5-1.1-2.6-2.5-2.6-1.4 0-2.6 1.1-2.6 2.6 0 0.9 0.5 1.7 1.3 2.2v4.2c0 2.1-1.7 3.8-3.8 3.8-2.1 0-3.8-1.7-3.8-3.8v-4.2c0.7-0.5 1.3-1.3 1.3-2.2 0-1.5-1.2-2.6-2.6-2.6-1.4 0-2.6 1.1-2.6 2.6 0 0.9 0.6 1.7 1.3 2.2v4.2c0 2.1-1.7 3.8-3.8 3.8-2.1 0-3.8-1.7-3.8-3.8v-4.2c0.8-0.5 1.3-1.3 1.3-2.2 0-1.5-1.2-2.6-2.6-2.6-1.4 0-2.5 1.1-2.5 2.6 0 0.9 0.5 1.7 1.3 2.2v4.2c0 2.1-1.7 3.8-3.9 3.8-2.1 0-3.8-1.7-3.8-3.8v-4.2c0.8-0.5 1.3-1.3 1.3-2.2 0-1.5-1.1-2.6-2.5-2.6-1.5 0-2.6 1.1-2.6 2.6 0 0.9 0.5 1.8 1.3 2.2v4.2c0 3.5 2.9 6.3 6.3 6.3 2.1 0 4-1 5.1-2.6 1.2 1.6 3 2.6 5.1 2.6 2.1 0 3.9-1 5.1-2.6 1.2 1.6 3 2.6 5.1 2.6 2.1 0 3.9-1 5.1-2.5 1.1 1.5 3 2.5 5.1 2.5 3.5 0 6.3-2.8 6.3-6.3v-4.2c0.8-0.4 1.3-1.3 1.3-2.2z"/><path class="a" d="m72.6 38.8h-5.1-2.5v34.4c0 13.3-10.9 24.1-24.2 24.1-13.3 0-24.2-10.8-24.2-24.1v-31.9-2.5h-2.5-5.1v2.5h5.1v31.9c0 3.6 0.7 7.1 2.1 10.4 1.3 3.2 3.2 6 5.7 8.5 2.5 2.4 5.3 4.4 8.5 5.7 3.3 1.4 6.8 2.1 10.4 2.1 3.6 0 7.1-0.7 10.4-2.1 3.2-1.3 6.1-3.3 8.5-5.7 2.5-2.5 4.4-5.3 5.7-8.5 1.4-3.3 2.1-6.8 2.1-10.4v-31.9h5.1c0 0 0-2.5 0-2.5z"/><path class="a" d="m19.2 43.9v29.3c0 11.9 9.7 21.6 21.6 21.6 11.9 0 21.6-9.7 21.6-21.6v-29.3zm40.7 2.6v5.1h-38.1v-5.1zm-5.6 40.1c-3.6 3.6-8.4 5.6-13.4 5.6-5.1 0-9.9-2-13.5-5.6q-1-1-1.8-2.1h30.5q-0.8 1.1-1.8 2.1zm5.6-13.4q0 1.9-0.4 3.7h-37.3q-0.4-1.8-0.4-3.7v-1.3h38.1zm-38.1-8.9v-5.1h38.1v5.1z"/><path class="a" d="m77.8 46.4h3.9v14.5h7.9v3.4h-11.8z"/><path class="a" d="m98.1 46.4h4l7.2 17.9h-4.2l-1.5-3.7h-7.2l-1.4 3.7h-4.1zm4.4 11.1l-0.7-1.9c-0.6-1.5-1.2-3.3-1.7-4.6-0.5 1.4-1.1 3.1-1.7 4.6l-0.8 1.9c0 0 4.9 0 4.9 0z"/><path class="a" d="m116.3 61.2c1.7 0 2.6-0.6 2.6-1.9 0-0.8-0.4-1.3-1.5-1.8-1.2-0.4-3.4-0.8-4.9-1.7-1.5-0.9-2.3-2.2-2.3-4.2 0-3.4 2.5-5.5 6.3-5.5 1.8 0 3.9 0.5 5.5 1.3v3.8c-1.9-1.2-4-1.7-5.4-1.7-1.4 0-2.4 0.6-2.4 1.7 0 0.9 0.5 1.4 1.6 1.8 1.2 0.5 3.4 0.9 4.9 1.8 1.5 0.9 2.2 2.3 2.2 4.2 0 3.5-2.6 5.6-6.5 5.6-1.8 0-4.2-0.5-5.9-1.4v-4c2 1.4 4.5 2 5.8 2z"/><path class="a" d="m139.3 64.6c-5.8 0-9.8-4-9.8-9.2 0-5.2 4-9.3 9.8-9.3 1.9 0 3.7 0.5 5.1 1.3v3.8c-1.3-0.9-3.2-1.6-5-1.6-3.5 0-5.9 2.5-5.9 5.7 0 3.3 2.4 5.8 6.1 5.8 1.8 0 3.6-0.7 5-1.6v3.8c-1.5 0.9-3.5 1.3-5.3 1.3z"/><path class="a" d="m146 55.4c0-5.3 4-9.3 9.4-9.3 5.3 0 9.3 4 9.3 9.3 0 5.2-4 9.2-9.3 9.2-5.4 0-9.4-4-9.4-9.2zm14.8 0c0-3.2-2.3-5.8-5.4-5.8-3.1 0-5.4 2.6-5.4 5.8 0 3.2 2.3 5.7 5.4 5.7 3.1 0 5.4-2.5 5.4-5.7z"/><path class="a" d="m167.2 46.4h3.7l5.3 7.2c1.2 1.6 2.3 3.1 3.4 4.7h0.1q-0.1-2.6-0.1-5.2v-6.7h3.8v17.9h-3.7l-5.4-7.2c-1.2-1.6-2.2-3.1-3.4-4.6q0 2.6 0 5.2v6.6h-3.8c0 0 0-17.9 0.1-17.9z"/><path class="a" d="m186.6 46.4h6.7c2.7 0 5 0.9 6.7 2.5 1.7 1.7 2.6 3.9 2.6 6.5 0 2.5-0.9 4.7-2.6 6.4-1.7 1.7-4 2.5-6.7 2.5h-6.7zm10.4 13.1c1-0.9 1.7-2.4 1.7-4.1 0-1.7-0.7-3.2-1.7-4.1-1.1-1-2.5-1.4-4-1.4h-2.5v11h2.5c1.5 0 2.9-0.4 4-1.4z"/><path class="a" d="m204.9 46.4h11.1v3.4h-7.1v3.7h6.1v3.3h-6.1v4.1h7.4v3.4h-11.4z"/><path class="a" d="m224.2 61.2c1.6 0 2.6-0.6 2.6-1.9 0-0.8-0.5-1.3-1.6-1.8-1.1-0.4-3.4-0.8-4.8-1.7-1.5-0.9-2.3-2.2-2.3-4.2 0-3.4 2.5-5.5 6.3-5.5 1.7 0 3.8 0.5 5.4 1.3v3.8c-1.9-1.2-4-1.7-5.3-1.7-1.5 0-2.5 0.6-2.5 1.7 0 0.9 0.5 1.4 1.7 1.8 1.1 0.5 3.4 0.9 4.8 1.8 1.5 0.9 2.2 2.3 2.2 4.2 0 3.5-2.6 5.6-6.4 5.6-1.9 0-4.2-0.5-5.9-1.4v-4c2 1.4 4.4 2 5.8 2z"/><path class="a" d="m77.7 69.3h1.2l6 8.6 6-8.6h1.2v15.4h-1.3v-9.6q0-1.9 0.1-3.6h-0.1c-0.7 1-1.5 2.2-2.3 3.3l-3.6 5.3-3.7-5.3c-0.7-1.1-1.5-2.3-2.3-3.3q0 1.7 0 3.6v9.6h-1.2z"/><path class="a" d="m96.5 69.3v8.8c0 1.3 0.1 2.7 0.9 3.8 0.8 1.1 2.1 1.8 3.8 1.8 1.6 0 2.9-0.7 3.7-1.8 0.8-1.1 0.9-2.5 0.9-3.8v-8.8h1.3v8.8c0 1.6-0.2 3.3-1.2 4.7-1 1.3-2.7 2.1-4.8 2.1-2 0-3.7-0.8-4.7-2.1-1-1.4-1.2-3.1-1.2-4.7v-8.8z"/><path class="a" d="m110.2 69.3h1.2l7 9.4c1 1.2 2 2.6 2.9 3.9h0.1c-0.1-1.5-0.1-3.2-0.1-4.8v-8.5h1.3v15.4h-1.2l-7.1-9.4c-0.9-1.2-1.9-2.6-2.9-3.9 0 1.4 0 3.1 0 4.6v8.7h-1.2z"/><path fill-rule="evenodd" class="a" d="m127.1 69.3v15.4h-1.3v-15.4z"/><path class="a" d="m137.4 84.9c-4.6 0-7.9-3.4-7.9-7.9 0-4.5 3.2-7.9 7.9-7.9 1.6 0 3.1 0.4 4.3 1.1v1.5c-1.2-0.9-2.7-1.4-4.3-1.4-3.9 0-6.6 2.9-6.6 6.7 0 3.8 2.7 6.7 6.7 6.7 1.6 0 3.2-0.6 4.4-1.5v1.5c-1.3 0.8-2.9 1.2-4.5 1.2z"/><path fill-rule="evenodd" class="a" d="m145.6 69.3v15.4h-1.3v-15.4z"/><path class="a" d="m148.8 69.3h4.7c1.6 0 2.8 0.2 3.9 0.9 1.1 0.8 1.8 2.1 1.8 3.6 0 1.6-0.7 2.9-1.8 3.6-1.1 0.8-2.3 1-3.9 1h-3.4v6.3h-1.3zm4.6 7.9c1.4 0 2.3-0.1 3.2-0.7 0.8-0.5 1.3-1.5 1.3-2.6 0-1.2-0.5-2.2-1.3-2.7-0.9-0.6-1.8-0.7-3.2-0.7h-3.3v6.7c0 0 3.3 0 3.3 0z"/><path class="a" d="m164.5 69.3h1.4l6.4 15.4h-1.4l-2-4.6h-7.5l-1.9 4.6h-1.3zm3.9 9.6l-1.3-3.2c-0.6-1.6-1.4-3.6-2-5-0.6 1.4-1.3 3.4-2 5l-1.3 3.2c0 0 6.6 0 6.6 0z"/><path class="a" d="m173.8 69.3h1.3v14.2h7.6v1.2h-8.9z"/><path fill-rule="evenodd" class="a" d="m186.2 69.3v15.4h-1.3v-15.4z"/><path class="a" d="m189.4 69.3h3.6c2.6 0 4.8 0.4 6.5 1.8 1.7 1.3 2.7 3.4 2.7 5.9 0 2.4-1 4.6-2.7 5.9-1.7 1.4-3.9 1.8-6.5 1.8h-3.6zm9.1 12.8c1.5-1.1 2.4-2.9 2.4-5.1 0-2.1-0.9-4-2.4-5.1-1.5-1.1-3.2-1.4-5.5-1.4h-2.3v13h2.3c2.3 0 4-0.3 5.5-1.4z"/><path class="a" d="m208.6 69.3h1.4l6.4 15.4h-1.4l-1.9-4.6h-7.6l-1.9 4.6h-1.3zm3.9 9.6l-1.3-3.2c-0.6-1.6-1.4-3.6-2-5-0.5 1.4-1.3 3.4-2 5l-1.3 3.2c0 0 6.6 0 6.6 0z"/><path class="a" d="m217.9 69.3h3.7c2.5 0 4.7 0.4 6.4 1.8 1.7 1.3 2.7 3.4 2.7 5.9 0 2.4-1 4.6-2.7 5.9-1.7 1.4-3.9 1.8-6.4 1.8h-3.7zm9.1 12.8c1.6-1.1 2.4-2.9 2.4-5.1 0-2.1-0.8-4-2.4-5.1-1.5-1.1-3.2-1.4-5.5-1.4h-2.3v13h2.3c2.3 0 4-0.3 5.5-1.4z"/></svg>