<svg version="1.2" xmlns="http://www.w3.org/2000/svg" viewBox="0 0 240 120" width="240" height="120"><style>.a{fill:#fff}</style><path class="a" d="m112 110.9c28.3 0 51.1-22.7 51.1-51 0-28.2-22.8-50.9-51.1-50.9-28.2 0-51 22.7-51 50.9 0 28.3 22.8 51 51 51zm0-62.6c-0.3 0-0.3-0.4-0.5-0.5l-14-30.3c4.5-1.6 9.4-2.5 14.5-2.5 5.1 0 10.1 0.9 14.6 2.5l-14 30.3c-0.2 0.1-0.2 0.5-0.6 0.5zm-14.7 32.7c-0.4 0-0.4-0.3-0.6-0.5l-22.9-44c4-6.6 9.8-12 16.6-15.9l16.2 35c0.3 0.7 0.7 0.9 1.3 0.9h8.3c0.6 0 1-0.2 1.3-0.9l16.1-35c6.7 3.9 12.5 9.3 16.5 15.9l-22.7 44q-0.3 0.6-0.6 0.5c-0.3 0-0.3-0.3-0.5-0.5l-8.8-19.3c-0.3-0.7-0.7-0.9-1.3-0.9h-8.3c-0.6 0-0.9 0.2-1.3 0.9l-8.8 19.3c-0.2 0.2-0.2 0.5-0.5 0.5zm14.7 23.9c-24.6 0-44.8-20.4-44.8-45 0-5 0.9-10 2.5-14.7l26.3 51c0.4 0.7 0.7 1.2 1.6 1.2 0.9 0 1.3-0.5 1.7-1.2l12.2-27.2q0.3-0.5 0.5-0.5c0.4 0 0.4 0.4 0.6 0.5l12.4 27.2c0.3 0.7 0.7 1.2 1.6 1.2 0.9 0 1.3-0.5 1.7-1.2l26.2-51c1.6 4.6 2.6 9.5 2.6 14.7-0.2 24.6-20.4 45-45.1 45z"/></svg>