<?xml version="1.0" encoding="utf-8"?>
<!-- Generator: Adobe Illustrator 25.1.0, SVG Export Plug-In . SVG Version: 6.00 Build 0)  -->
<svg version="1.1" id="Layer_1" xmlns="http://www.w3.org/2000/svg" xmlns:xlink="http://www.w3.org/1999/xlink" x="0px" y="0px"
	 viewBox="0 0 1892 647.4" style="enable-background:new 0 0 1892 647.4;" xml:space="preserve">
<style type="text/css">
	.st0{fill:#FFFFFF;}
</style>
<g>
	<g>
		<path class="st0" d="M1338.9,297.6c-8.8,26.9-5.7,56-23.9,81c-13.1,18-31.5,29.2-58.4,29c-30.7-0.2-61.5-1-92.2,0.2
			c-38.9,1.6-61.4-21.7-67.4-49.2c-3.9-18.1,0.6-35.6,4.3-53.2c6.2-29.5,10.4-59.2,19.6-88.2c8.8-27.7,29-48,61.4-60.2
			c12.4-4.7,24.7-6,37.8-6.1c38.9-0.3,77.9-1.2,116.8-0.6c17.8,0.3,27.7-5.5,32.8-18.8c5.6-14.6,10.1-29.3,10.6-44.6
			c0.5-15.2-3.5-18.2-21.5-18.3c-24.7,0-49.3,0.3-74-0.1c-22.7-0.4-29,0.8-37.2,23.3c-2.4,6.7-5.6,8.4-13,6.7
			c-24.9-5.8-50.4-8.9-75.9-12.3c-6.8-0.9-11.2-3.1-8.6-11c7.9-23.3,21.8-43,44.8-58.3c16.7-11.1,34.9-17,56.8-16.8
			c54.3,0.4,108.7,1,163-0.2c33.6-0.8,60.3,19.9,67.3,44.4c4.6,16.4,3.1,32.5-0.7,48.8c-4.9,20.9-6.7,42.4-15.1,62.6
			c-8.1,19.3-22.1,35.3-42,47.9c-17.7,11.2-37.3,15.9-59.6,15.6c-38.9-0.6-77.9-0.2-116.9-0.1c-19,0-25.6,3.8-30.2,19.1
			c-7.8,25.9-11.9,52.3-17.1,78.5c-0.7,3.4-0.4,7-0.1,10.6c0.7,8.5,7.3,13.8,17.5,13.9c10,0.2,19,0.9,30,0.3
			c15-0.4,51.5-22.7,61.8-28.8C1318.6,307.3,1327.1,301.2,1338.9,297.6"/>
		<path class="st0" d="M927.1,289c10,0,20,0,30,0c3.1,0,5.7-0.8,8.8-2c9.7-4,11.7-11,13.3-18.1c9.7-43.4,19.4-86.8,28.4-130.2
			c2.1-9.9,6.7-19.7,3.7-30.2c-1.9-6.6-5.9-8.5-13.7-8.5c-18.5,0.2-37,0.1-55.5,0.1c-17.8,0-21.9,2.2-25.2,16.4
			c-10,43.1-19.5,86.2-29.2,129.3c-2,8.9-4.2,17.8-5.2,26.8c-1.4,11.7,4.7,16.6,19.1,16.6H927.1z M978.6,47c20,0,40.1,0.8,60-0.2
			c32.4-1.6,50.3,19,51.6,40.5c1.1,17.5-5.2,34.2-8.8,51.2c-10,48-20.4,95.9-31.2,143.8c-6.6,29.3-28,48.9-64.5,57.3
			c-3.1,0.7-6.6,0.4-10,0.4c-38.6,0-77.1,0.2-115.7,0c-32.8-0.2-52-16.3-54.5-40.4c-2-20.2,5.5-39.5,9.5-59.1
			c9.1-43.9,19.4-87.7,28.5-131.6c4.7-22.8,17.5-41.6,40.9-55.2c9-5.3,20.4-6.7,31.7-6.6C937.1,47.1,957.8,47.1,978.6,47"/>
		<path class="st0" d="M241.8,47c21.9,0,43.8,0.8,65.6-0.2c34.2-1.5,52.6,18.1,56.7,41.3c0.2,1.2,0.3,2.3,0.3,3.5
			c1.2,20.4,0.3,21.5-24.8,24.8c-17.9,2.3-35.9,4-53.8,6.4c-5.4,0.7-6.6-0.3-6-4.2c0.3-2,0.1-4.1-0.1-6.2
			c-1.2-10.7-3.7-12.5-17.2-12.6c-20.8,0-41.5,0.5-62.3-0.1c-12.1-0.3-20.1,3-23.7,12.1c-5.7,14.5-10.7,29.3-10.5,44.6
			c0.2,12.6,3.5,14.7,18.9,14.8c31.9,0.1,63.8-0.4,95.6,1.2c44.4,2.3,63,23.1,58.7,54.5c-2.7,19.7-6.2,39.6-13.4,58.6
			c-10.6,28-21.2,47.2-58,53.1c-17.8,2.8-29.7,3.1-67,3.6c-66.3-0.5-127.4-0.5-134.7-0.9c24.7-61.5,1-55.8,118.3-54.8
			c23.1-0.9,30.2,0,45.7-2c10.6-3.2,21.2-26.1,23.1-45.5c-0.5-12.7,2.9-15.3-18.8-15c-32.6,0-65.3-1.2-97.9,0.3
			c-30.3,1.4-51.1-18.2-55.3-38.7c-3.5-16.8,1.4-32.6,5.2-48.7c4.1-17.4,5.8-35.4,17-51.4c16.7-23.8,38.5-40.4,76.1-38.8
			C200.2,47.7,221.1,47,241.8,47"/>
		<path class="st0" d="M542.2,118.8c-14.4,16.9-27.6,32.4-40.8,47.9c-2.1,2.5-5.3,1.6-8.1,1.8c-17.8,1.1-27.8,7.1-30.8,23.3
			c-4.8,25.2-10.7,50.3-16,75.4c-1.8,8.5-5.6,17.4,8,22.5c2.8,1.1,44.9,0.3,44.1,1.3c-8.3,19.1-14.3,30.8-22.9,42
			c-11.5,11.6-28.1,8.2-81.6,7.1c-32.4,0-35.7-37.5-30.9-61.4c11.5-56.3,24.2-112.4,36.4-168.6c4-18.4,7.3-37,12.6-55.1
			c6.5-22.5,22.2-40,49.3-50.2c1.9-0.7,3.8-1.5,5.6-2.5c11.4-3.6,22.1-4.2,27.2,6.5c5.2,10.9,10,21.8,14.8,32.8c1.4,3.1,3,6.2-4,7.6
			c-8.6,1.8-12.2,8.5-14,14.6c-4.8,16.5-8.2,33.3-12.4,49.9c-1.3,5.1,2.2,5,6.7,4.9C503.6,118.7,521.7,118.8,542.2,118.8"/>
		<path class="st0" d="M1702.8,214.1c12.9,0,25.1,0.1,37.3,0c6.6-0.1,10.3-2.8,13-7.8c6.2-11.6,6.7-24,9.3-36c1-4.5,3.1-6.5,8.4-7.8
			c15.7-3.8,49-17.5,52.9-18.3c-3.5,16.5-6.8,32.5-10.2,48.5c-1,4.6-2.1,9.2-3.4,13.8c-1.9,7-2.7,12.3,5.9,18.8
			c11,8.3,11.2,21.4,8.9,33.1c-4.5,23.4-9.9,46.7-15,70c-0.6,2.7-0.4,5.1-5.8,4.5c-16-1.9-30.1-8.7-45.9-11.2
			c-4.1-0.7-2.1-4.6-1.6-6.9c3.1-15,6.6-29.9,9.8-44.9c0.6-2.9,0.9-5.8,1.2-8.7c0.7-6.8-2.2-10.4-11.8-10.1
			c-17.8,0.4-35.6,0.3-53.4,0.1c-5.8-0.1-8.4,0.8-8.8,6.1c-0.5,6.4-5.7,14.4-1.2,18.8c10.1,9.8,0.5,14.5-4.7,21.1
			c-2.8,3.5-5.8,6.4-8.9,10c-10.2,12.2-25.9,12.5-36.3,0.7c-9.3-10.7-10.8-22.5-8.3-34.4c10.5-49.9,21.8-99.7,32.4-149.6
			c3.6-16.6,14.7-29.4,30.9-39.5c6.1-3.8,14.3-4.6,22.2-4.6c15.2,0,30.4,0,46.8,0c-6.6,11.4-33.7,39.4-39.8,42.9
			c-6.6,3.7-5.8,10.4-7.1,16C1714.1,163.5,1708.6,188.6,1702.8,214.1"/>
		<path class="st0" d="M1697.7,0.4c0.9,7.5-39.9,46.4-60,64.1c-26.1,16.3-25.4,38.7-30.5,59.9c-13.7,56.6-26.1,113.4-38.9,170.1
			c-2.3,10.4-5,20.8-6.1,31.3c-0.7,7.6-2,16,10.2,20.6c3.5,1.3,2.4,4,0.1,6.6c-14.4,16.1-28.5,32.3-42.5,48.5
			c-4,4.6-8.6,6.5-16.3,5.9c-29-2.2-50.3-20.5-54.7-47.1c-3.5-21.2,3.9-41.4,8.5-61.8c16.7-74.4,33.3-148.9,51-223.2
			c7.4-31.1,28.1-55.8,67.9-69.9c9.7-3.5,19.1-5.2,29.5-5.2C1643.1,0.4,1670.3,0.4,1697.7,0.4"/>
		<path class="st0" d="M813.1,46.6h-19.8H631.8c-7.6,1.7-23.1,6.2-37.5,20.1c-10,9.6-15.7,20-18.8,26.8
			c-12.5,66.9-25,133.8-37.5,200.7c-0.3,2.5-1.8,15.2,6.2,26.8c5,7.3,11.9,10.3,18.8,13.4c16.1,7.1,30.8,7,35.9,6.8
			c0.2,0,0.4,0,0.5,0c0.6,0,1-0.1,1.1-0.1c14.4-0.9,50,0,50,0h50h25c2.4,0.8,7.3,2,12.5,0c6.4-2.4,9.5-8,12.5-13.4
			c2.1-3.8,5.2-10.6,6.3-20.1c2.1-8.8,4.2-17.7,6.2-26.8c7.2-32,13.4-63.2,18.8-93.7h-93.8c-4.2,17.8-8.3,35.7-12.5,53.5h43.8
			c-1.6,8.4-3.6,17.3-6.2,26.8c-0.7,2.4-0.8,6.6-3.2,11c-2.7,4.7-6.5,7.5-9.3,9.1h-18.8h-56.3c-0.8,0.2-3.4,1-6.3,0
			c-2.5-0.9-5.2-3.2-6.3-6.7c-1-3.1-0.3-5.7,0-6.7c10.4-53.5,20.8-107.1,31.3-160.6c1.7-2.3,3.8-4.6,6.2-6.7
			c6.2-5.1,13.5-5,16.6-5.1c61.8-1.1,133.5-1.6,133.5-1.6C804.8,82.3,809,64.5,813.1,46.6"/>
		<path class="st0" d="M1223.3,486.2c2.3,0.5,4,1.6,5.2,3.4c1.2,1.7,1.8,3.8,1.8,6.3c0,3.3-1.1,6-3.4,8.1c-2.2,2.1-5.2,3.1-8.7,3.1
			h-18.9v-38h18c3.4,0,6.2,0.9,8.1,2.8c1.9,1.9,2.9,4.1,2.9,6.6c0,1.7-0.5,3.3-1.4,4.8C1226,484.7,1224.8,485.7,1223.3,486.2
			 M1215.3,478h-5.8v5.4h5.3c1.1,0,1.9-0.2,2.4-0.7c0.6-0.5,0.8-1.1,0.8-1.9c0-0.8-0.3-1.4-0.8-1.9
			C1216.9,478.3,1216.2,478,1215.3,478 M1209.6,498h6.4c1.2,0,2.1-0.3,2.7-0.9c0.6-0.6,0.9-1.3,0.9-2.2c0-0.9-0.3-1.6-0.9-2.2
			c-0.6-0.6-1.4-0.9-2.4-0.9h-6.7V498z"/>
		<polygon class="st0" points="1257.7,469.1 1270.1,469.1 1257,494.5 1257,507.1 1246.6,507.1 1246.6,494.5 1233.7,469.1 
			1246.1,469.1 1251.8,482.5 		"/>
	</g>
	<g>
		<g>
			<g>
				<g>
					<path class="st0" d="M1427.6,469.1c-28.9,0-60.7,17.7-80.7,34.4l1.6,2.3c31-21.7,74-35.8,85.9-14.6
						c6.3,11.2-4.4,33.7-19.3,51.6c3.6-7.9,1.2-23-19.7-23c-34.7,0-103,45.9-103,92.9c0,18.8,13.1,31.1,34.6,31.1
						c57.6,0,135.8-94.4,135.8-141.8C1462.8,485.1,1453.1,469.1,1427.6,469.1 M1346.7,592.9c-10,0-14.8-7.7-12.3-16.5
						c5.2-18.4,38.4-45.6,61-45.6c16.5,0,15.3,14.7,5.6,27.3l-5.4,5.9C1376.5,582.9,1358.7,592.9,1346.7,592.9"/>
					<path class="st0" d="M1501.8,592.9c-3.3,0-6.1-1.2-7.9-3.3c-1.8-2.2-2.4-5.4-1.5-8.7c1.9-7.1,9.6-12.7,17.5-12.7h18.5
						l-6.6,24.7H1501.8z M1555.1,518.9c-5.3-6.5-13.9-9.4-20-9.4h-33.7l-5.7,21.3h31.8l3.1,0.3c0,0,2.9,0.3,4.5,2.5
						c1.3,1.8,1.5,4.5,0.6,8l-1.5,5.6h-20c-17.2,0-41.3,12.4-46.6,32.3c-2.7,9.9-0.3,18.6,4.8,24.9c5.1,6.3,14.8,9.8,25.3,9.8h18.5
						v0h23.6l11.1-41.3l8.1-30.3C1562,530.7,1558.6,523.1,1555.1,518.9"/>
					<path class="st0" d="M1786.7,509.5c-9.1,0-17.6,2.7-24.5,7.8c-7,5.2-10.8,11.3-13.1,19.9c-5,18.5,9.6,27.4,21.3,33.7
						c8.4,4.5,15.6,8.5,14.1,14.2c-1.1,4.2-2.9,7.8-13.2,7.8h-31.5l-5.7,21.3h34.8c9.3,0,18-2,24.9-7.3c7-5.4,10.9-12.8,13.3-21.9
						c2.3-8.7,0.8-16.9-4.8-23.1c-4.6-5.2-11.3-8.8-17.2-11.9c-7.5-4.1-14.7-7.9-13.4-12.5c0.8-2.8,3.5-6.7,9.6-6.7h30.6l5.7-21.3
						H1786.7z"/>
					<path class="st0" d="M1604,509.5c-9.1,0-17.6,2.7-24.5,7.8c-7,5.2-10.8,11.3-13.1,19.9c-5,18.5,9.6,27.4,21.3,33.7
						c8.4,4.5,15.6,8.5,14.1,14.2c-1.1,4.2-2.9,7.8-13.2,7.8H1557l-5.7,21.3h34.8c9.4,0,18-2,24.9-7.3c7-5.4,10.9-12.8,13.3-21.9
						c2.3-8.7,0.8-16.9-4.8-23.1c-4.7-5.2-11.3-8.8-17.2-11.9c-7.5-4.1-14.6-7.9-13.4-12.5c0.7-2.8,3.6-6.7,9.6-6.7h30.6l5.7-21.3
						H1604z"/>
				</g>
				<polygon class="st0" points="1651.5,509.5 1624.2,614.2 1647.2,614.2 1674.6,509.5 				"/>
				<g>
					<path class="st0" d="M1736,509.5c-40.7,0.2-61.9,27.2-68.7,52.4c-8,29.9,7.9,52.4,37,52.4h19.5l5.7-21.3h-19.5
						c-10.9,0-25.9-8.6-19.8-31.1c4.8-17.9,22.2-31.1,41.4-31.1h12.4l5.7-21.3H1736z"/>
				</g>
			</g>
		</g>
	</g>
</g>
</svg>
