<?xml version="1.0" encoding="UTF-8"?>
<svg id="Layer_1" data-name="Layer 1" xmlns="http://www.w3.org/2000/svg" viewBox="0 0 1892 647.43">
  <defs>
    <style>
      .cls-1 {
        fill: #fff;
        stroke-width: 0px;
      }
    </style>
  </defs>
  <g>
    <g>
      <path class="cls-1" d="m1360.66,310.16c-9.46,28.04-6.14,58.4-25.55,84.46-13.95,18.72-33.67,30.45-62.42,30.26-32.85-.22-65.77-1.08-98.55.22-41.58,1.66-65.67-22.64-72.09-51.31-4.22-18.83.67-37.08,4.62-55.42,6.61-30.7,11.14-61.74,20.94-91.9,9.39-28.89,30.95-50.07,65.62-62.79,13.25-4.85,26.43-6.23,40.39-6.31,41.63-.27,83.27-1.26,124.87-.58,19.06.32,29.57-5.7,35.1-19.59,6.04-15.17,10.83-30.54,11.35-46.49.51-15.79-3.71-19.02-22.99-19.05-26.36-.03-52.73.37-79.08-.09-24.29-.42-31.05.79-39.75,24.24-2.6,7.03-5.97,8.78-13.85,7.01-26.6-6-53.87-9.33-81.09-12.86-7.24-.94-12.02-3.23-9.17-11.46,8.42-24.29,23.3-44.76,47.93-60.78C1224.77,6.13,1244.29.03,1267.61.22c58.06.47,116.16,1.1,174.19-.2,35.87-.81,64.5,20.76,71.9,46.24,4.96,17.1,3.37,33.88-.73,50.86-5.25,21.78-7.14,44.14-16.19,65.25-8.63,20.11-23.59,36.8-44.89,49.92-18.95,11.68-39.88,16.57-63.73,16.24-41.63-.59-83.28-.2-124.93-.15-20.34.02-27.36,3.98-32.26,19.86-8.31,26.95-12.73,54.49-18.31,81.84-.73,3.58-.4,7.34-.09,11,.76,8.82,7.8,14.33,18.68,14.51,10.69.19,20.29.91,32.05.26,16-.44,55.04-23.65,66.11-30.05,9.52-5.51,18.55-11.84,31.24-15.64"/>
      <path class="cls-1" d="m920.45,301.2c10.69,0,21.37.04,32.05-.02,3.36-.02,6.11-.8,9.39-2.12,10.39-4.18,12.47-11.46,14.17-18.88,10.37-45.22,20.77-90.44,30.4-135.75,2.2-10.33,7.16-20.48,3.96-31.53-2.01-6.92-6.36-8.9-14.66-8.82-19.78.2-39.57.05-59.36.06-19.04,0-23.39,2.29-26.91,17.07-10.67,44.87-20.89,89.8-31.19,134.72-2.13,9.28-4.47,18.57-5.59,27.94-1.47,12.24,5,17.32,20.43,17.32h27.3m55.01-252.16c21.4,0,42.87.82,64.18-.19,34.62-1.65,53.73,19.85,55.12,42.16,1.14,18.21-5.6,35.68-9.4,53.39-10.72,50.01-21.77,99.98-33.34,149.87-7.08,30.53-29.9,50.94-68.93,59.74-3.32.75-7.08.43-10.64.44-41.21.02-82.43.19-123.65-.04-35.07-.2-55.63-16.99-58.24-42.14-2.18-21.03,5.86-41.17,10.21-61.59,9.74-45.78,20.75-91.4,30.47-137.18,5.05-23.76,18.7-43.31,43.73-57.54,9.67-5.5,21.77-6.95,33.9-6.93,22.18.04,44.38,0,66.58,0"/>
      <path class="cls-1" d="m187.9,48.97c23.38,0,46.82.8,70.14-.18,36.51-1.53,56.23,18.87,60.59,43.07.22,1.21.27,2.44.35,3.66,1.32,21.23.31,22.42-26.46,25.83-19.13,2.44-38.41,4.12-57.51,6.66-5.8.77-7.01-.36-6.45-4.37.29-2.11.1-4.28-.14-6.41-1.23-11.11-3.96-13.08-18.39-13.1-22.19-.03-44.41.47-66.57-.14-12.95-.35-21.5,3.12-25.33,12.59-6.12,15.14-11.46,30.5-11.25,46.5.17,13.13,3.7,15.31,20.21,15.38,34.07.15,68.15-.46,102.19,1.24,47.46,2.37,67.37,24.02,62.73,56.82-2.91,20.57-6.67,41.23-14.38,61.1-11.32,29.18-22.63,49.2-62.03,55.32-19.07,2.96-31.8,3.19-71.58,3.73-70.91-.54-136.2-.54-144.02-.89,26.35-64.05,1.02-58.19,126.5-57.13,24.66-.89,32.3,0,48.88-2.04,11.31-3.29,22.7-27.24,24.72-47.44-.52-13.22,3.08-15.99-20.15-15.62-34.87-.02-69.84-1.21-104.6.31-32.44,1.41-54.6-18.96-59.15-40.34-3.72-17.48,1.49-34.02,5.55-50.75,4.4-18.18,6.16-36.86,18.19-53.61,17.84-24.83,41.16-42.12,81.38-40.39,22.12.94,44.38.17,66.57.17"/>
      <path class="cls-1" d="m509.02,123.81c-15.41,17.61-29.54,33.76-43.64,49.92-2.24,2.58-5.67,1.67-8.67,1.85-19.01,1.1-29.7,7.45-32.98,24.26-5.12,26.27-11.39,52.4-17.07,78.6-1.91,8.81-5.99,18.15,8.59,23.49,3.03,1.11,47.96.33,47.1,1.37-8.85,19.87-15.3,32.11-24.49,43.82-12.24,12.07-30.09,8.52-87.23,7.45-34.68,0-38.21-39.09-32.99-63.95,12.32-58.66,25.82-117.17,38.91-175.73,4.29-19.18,7.83-38.51,13.43-57.47,6.93-23.45,23.69-41.72,52.65-52.33,2.05-.75,4.02-1.58,5.98-2.58,12.17-3.79,23.67-4.35,29.1,6.82,5.51,11.34,10.74,22.77,15.82,34.23,1.45,3.27,3.24,6.42-4.28,7.96-9.22,1.88-13.05,8.91-14.92,15.18-5.11,17.21-8.73,34.68-13.26,52-1.39,5.34,2.36,5.18,7.17,5.15,19.4-.11,38.81-.04,60.74-.04"/>
      <path class="cls-1" d="m1749.63,223.18c13.79,0,26.83.07,39.87-.03,7.09-.05,10.99-2.93,13.86-8.12,6.67-12.05,7.13-24.98,9.96-37.54,1.06-4.73,3.37-6.77,8.93-8.09,16.8-3.98,52.37-18.22,56.51-19.06-3.72,17.22-7.28,33.87-10.94,50.51-1.06,4.8-2.27,9.59-3.62,14.34-2.08,7.34-2.84,12.87,6.28,19.59,11.78,8.68,11.95,22.29,9.56,34.52-4.78,24.39-10.62,48.66-15.99,72.98-.61,2.76-.43,5.35-6.16,4.68-17.12-2.01-32.13-9.08-49.03-11.68-4.43-.69-2.22-4.77-1.71-7.18,3.34-15.62,7.04-31.2,10.52-46.8.67-3.01.99-6.06,1.33-9.1.79-7.07-2.37-10.8-12.67-10.57-19,.42-38.04.27-57.04.06-6.19-.07-9.01.81-9.45,6.39-.53,6.64-6.13,14.96-1.23,19.59,10.76,10.2.58,15.14-5.05,22.02-2.95,3.6-6.15,6.65-9.47,10.37-10.85,12.76-27.66,13.03-38.76.68-9.97-11.11-11.5-23.4-8.82-35.86,11.2-52,23.26-103.91,34.66-155.88,3.8-17.34,15.67-30.65,33.06-41.12,6.55-3.94,15.25-4.84,23.73-4.83,16.23,0,32.46,0,50,0-7.05,11.91-36.01,41.05-42.59,44.7-7.06,3.9-6.17,10.79-7.55,16.65-6.1,26.05-12.04,52.13-18.17,78.79"/>
      <path class="cls-1" d="m1744.18.37c.92,7.86-42.61,48.31-64.1,66.85-27.85,17.01-27.14,40.38-32.58,62.4-14.61,59.01-27.9,118.19-41.6,177.33-2.51,10.83-5.38,21.67-6.46,32.6-.79,7.92-2.11,16.7,10.93,21.49,3.78,1.39,2.6,4.14.06,6.9-15.39,16.74-30.47,33.64-45.43,50.59-4.25,4.81-9.15,6.8-17.43,6.19-30.95-2.27-53.79-21.37-58.52-49.04-3.77-22.05,4.15-43.13,9.05-64.43,17.85-77.58,35.56-155.18,54.54-232.61,7.94-32.41,30.06-58.14,72.58-72.89,10.41-3.61,20.42-5.4,31.51-5.39,29.09,0,58.18,0,87.47,0"/>
      <path class="cls-1" d="m798.6,48.61h-193.81c-8.07,1.73-24.65,6.51-40.1,20.92-10.73,10.01-16.79,20.81-20.05,27.89-13.37,69.74-26.73,139.47-40.1,209.21-.37,2.65-1.91,15.84,6.68,27.9,5.39,7.57,12.67,10.78,20.05,13.94,17.16,7.35,32.97,7.29,38.39,7.06.21,0,.4-.02.58-.03.67-.03,1.11-.06,1.13-.06,15.41-.96,53.46,0,53.46,0h80.2c2.61.83,7.79,2.04,13.37,0,6.8-2.49,10.16-8.35,13.36-13.95,2.26-3.94,5.59-10.99,6.68-20.92,2.27-9.2,4.5-18.5,6.68-27.89,7.72-33.31,14.36-65.89,20.05-97.63h-100.24c-4.46,18.59-8.91,37.19-13.37,55.79h46.78c-1.71,8.73-3.89,18.08-6.68,27.9-.72,2.51-.8,6.87-3.47,11.43-2.88,4.92-6.94,7.82-9.9,9.49h-80.2c-.85.23-3.64,1.06-6.68,0-2.68-.94-5.52-3.34-6.68-6.97-1.02-3.19-.32-5.96,0-6.98,11.14-55.79,22.28-111.58,33.41-167.37,1.82-2.45,4.03-4.83,6.68-6.97,6.64-5.35,14.42-5.22,17.72-5.28,66.08-1.18,142.67-1.69,142.67-1.69,4.46-18.6,8.91-37.19,13.37-55.79"/>
    </g>
    <g>
      <path class="cls-1" d="m1650.67,554.07c-.48.33-7.08,4.59-11.17,6.14-4.11,1.58-9.89,2.87-13.6,3.52-1.99.35-10.3,1.49-10.38,1.51-2.14.35-4.51.71-7.5,1.12-3.69.52-8.23,1.18-14.23,2.12l-1.84.32c-12.66,2.14-15.31,2.61-25.31,6.35-4.92,1.81-7.67,3.21-9.55,4.15l-.48.24c-.68.39-1.75,1.01-3.15,1.83-2.56,1.51-6.79,3.93-10.45,5.74-1.57.79-2.49,1.02-4.65.6-2.14-.5-2.88-1.08-4-2.44-2.6-3.15-5.48-7.08-7.21-9.5-.94-1.32-1.68-2.32-2.14-2.95l-.34-.41c-1.33-1.62-3.28-4.02-7.04-7.67-7.62-7.48-9.84-9-20.54-16.1l-1.55-1.05c-5.1-3.31-8.98-5.75-12.14-7.73-2.56-1.59-4.59-2.88-6.4-4.08-.07-.05-7.2-4.47-8.87-5.6-3.12-2.11-7.88-5.63-10.99-8.75-3.11-3.08-7.4-9.65-7.71-10.15-.33-.54.27-1.31.78-1.69.28-.21.92-.48,1.43-.37.2.04.34.13.45.25.12.16.47.56.93,1.13,1.49,1.82,4.59,5.59,6.81,7.85,4.41,4.53,11.05,8.54,13.56,10.05.42.25.75.45.9.55,1.04.69,4.94,2.83,6.57,3.66,4.11,2.09,9.03,4.29,13.51,6.04,4.81,1.86,9.37,3.6,12.91,5.41l.58.29c5.06,2.43,13.26,8.38,15.16,9.91,3.16,2.55,12.39,7.71,15.18,9.19.8.48,2.5,1.29,4.89,1.85,2.41.46,4.3.41,5.22.3,3.15-.21,13.69-1.18,17.61-2.22,2.37-.63,12.27-2.73,17.89-2.89l.65-.03c3.97-.22,8.84.04,13.99.3,4.8.22,10.19.22,14.79-.02,1.83-.1,6.26-.46,7.49-.67.18-.03.56-.08,1.05-.14,2.91-.35,10.6-1.33,16.47-3.67,2.95-1.17,7.31-3.35,9.41-4.41.65-.33,1.14-.56,1.31-.66.16-.06.32-.08.52-.04.51.11.98.62,1.15.92.31.55.54,1.5.02,1.86Zm227.43,84.79l-26.75-147.6c-.45-2.5-2.63-4.32-5.18-4.32h-35.81c-6.42,0-7.02.15-9.09,3.78l-1.11,2.14-66.11,115.75-26.3-41.36,56.06-69.16c2.56-3.09,3.46-5.32,3.46-6.99,0-3.11-1.59-4.16-8.5-4.16h-29.5c-4.45,0-4.87.27-8.53,4.74l-52.06,63.91,10.76-59.39q.67-3.33.72-4.28c.24-4.04-1.6-4.97-8.49-4.97h-23.84c-7.84,0-8.34.22-9.74,7.82l-9.75,54.31c-3.32-39.25-32.97-64.77-77.36-64.77-33.53,0-61.51,14.4-77.92,37.82.96.62,1.96,1.24,3.02,1.88.49.29.85.52,1.02.63.03.02.06.04.09.06.7.46,4.26,2.44,6.06,3.36,3.92,2,8.67,4.12,13.02,5.82l.34.13c4.81,1.86,9.36,3.61,13.06,5.5l.52.26c.06.03.12.06.17.09,8.58-10.31,21.77-16.62,37.05-16.62,21.34,0,36.06,12.47,38.84,32.04,3.63-.07,7.74.13,12.07.35l.39.02c4.65.22,9.85.21,14.25-.02,2-.11,6.06-.47,6.89-.61.03,0,.07-.01.1-.02.2-.03.63-.09,1.17-.16,6.52-.79,11.62-1.92,15.18-3.33,2.74-1.08,6.97-3.2,9-4.22.34-.18.67-.34.91-.46l.28-.14c.16-.09.3-.15.47-.22,1.12-.46,2.36-.58,3.56-.34,2.32.5,3.93,2.14,4.7,3.5,1.8,3.2,1.14,6.89-1.56,8.76-.07.05-7.39,4.87-12.3,6.74-5.4,2.08-12.5,3.42-14.55,3.78-1.4.25-5.26.79-9.23,1.35-.63.09-1.08.15-1.23.17-2.13.35-4.56.71-7.62,1.14-3.56.5-8.03,1.15-14.09,2.1l-1.8.32c-3.13.53-5.62.95-7.74,1.34-5.22,20.06-22.47,33.19-44.92,33.19-25.52,0-41.62-16.87-40.17-41.96.18-3.02.62-5.93,1.31-8.73-1.91-1.32-4.19-2.83-7.15-4.8l-1.54-1.04c-5.12-3.32-8.96-5.74-12.03-7.66-2.61-1.62-4.68-2.94-6.48-4.13-.13-.08-.52-.33-1.07-.67-3.39-2.12-6.7-4.18-7.87-4.98-1.72-1.16-7.67-5.28-11.78-9.4-3.77-3.74-8.43-11.06-8.47-11.13-1.71-2.82-.81-6.45,2.13-8.65,1.26-.94,3.4-1.77,5.64-1.31,1.28.29,2.36.9,3.2,1.78.13.13.25.28.36.42l.17.21c.18.21.41.49.67.82,1.43,1.74,4.42,5.38,6.47,7.47,1.39,1.42,3.19,2.94,5.37,4.53l4.19-23.13.58-4.28c.49-3.9-1.6-4.97-8.49-4.97h-24.6c-7.84,0-8.34.22-9.74,7.82l-8.83,49.67h-56.76l8.75-48.24q.67-3.33.72-4.28c.24-4.04-1.6-4.97-8.49-4.97h-24.44c-7.84,0-8.34.22-9.74,7.82l-25.54,140.92-.49,4.27c-.23,4.04,1.6,4.84,8.25,4.84h24.44c7.84,0,8.34-.08,9.74-7.69l10.49-57.75h56.76l-10.17,56.32c-.61,2.38-.67,3.33-.72,4.27-.23,4.04,2.3,4.84,9.19,4.84h23.8c7.84,0,8.35-.08,9.74-7.69l10.11-55.76c3.6,39.85,34.71,66.08,80.74,66.08,29.62,0,53.77-11.05,70.01-31.73,4.41-5.63,8.23-12.1,11.33-19l-7,38.99-.49,4.28c-.47,4.04,1.36,4.84,8.01,4.84h23.84c7.84,0,8.35-.08,9.74-7.69l11.44-62.95c2.43,5.46,4.61,9.81,10.68,20.41l27.54,45.39c2.89,4.64,3.23,4.85,7.75,4.84h41.79c6.65,0,7.14.15,9.34-3.89l1.11-2.14,11.92-22.58h55.47l3.39,24.81c.3,2.17,2.15,3.79,4.34,3.79h34.46c3.15,0,5.52-2.85,4.96-5.94Zm-85.26-54.26l25.18-50.29,6.86,50.29h-32.05Z"/>
      <path class="cls-1" d="m1888.73,642.43c.06.11.09.17.09.21,0,.13-.08.18-.31.18h-.24q-.23,0-.35-.2l-1.29-2.23h-.32l-.27,2.15c-.04.27-.04.28-.32.28h-.26c-.24,0-.3-.04-.3-.19,0-.04,0-.1,0-.14l.66-5.31c.03-.27.04-.28.32-.28h.87c.69,0,1.07.1,1.38.35.35.3.57.79.57,1.33,0,.51-.19.97-.52,1.28-.24.23-.49.35-.97.46l1.25,2.1Zm-2.32-2.81h.4c.53,0,.8-.08,1-.3.17-.19.28-.46.28-.74,0-.35-.18-.65-.45-.77-.13-.05-.36-.09-.63-.09h-.36l-.23,1.9Zm.66-4.69c-2.72,0-4.93,2.21-4.93,4.93s2.21,4.93,4.93,4.93,4.93-2.21,4.93-4.93-2.21-4.93-4.93-4.93Zm0,9.08c-2.36,0-4.28-1.86-4.28-4.14s1.91-4.14,4.28-4.14,4.28,1.86,4.28,4.14-1.91,4.14-4.28,4.14Z"/>
    </g>
  </g>
  <g>
    <path class="cls-1" d="m1237.01,506.74c2.43.54,4.3,1.71,5.61,3.51,1.3,1.81,1.96,3.98,1.96,6.52,0,3.47-1.2,6.29-3.59,8.48-2.4,2.18-5.51,3.27-9.33,3.27h-20.22v-39.64h19.26c3.68,0,6.58.97,8.69,2.9,2.07,1.93,3.11,4.22,3.11,6.87,0,1.79-.51,3.44-1.53,4.96-1.02,1.52-2.33,2.57-3.94,3.14Zm-8.48-8.53h-6.17v5.63h5.69c1.14,0,2.01-.26,2.6-.78.59-.52.89-1.19.89-2.01s-.28-1.46-.83-2.01c-.55-.55-1.28-.83-2.17-.83Zm-6.17,20.87h6.81c1.29,0,2.26-.31,2.92-.94.66-.63.99-1.4.99-2.33s-.31-1.7-.94-2.31c-.63-.61-1.49-.91-2.6-.91h-7.19v6.49Z"/>
    <path class="cls-1" d="m1273.86,488.87h13.2l-13.95,26.55v13.09h-11.16v-13.09l-13.79-26.55h13.2l6.17,14,6.33-14Z"/>
  </g>
</svg>